<?xml version="1.0" encoding="UTF-8"?><svg id="Layer_1" xmlns="http://www.w3.org/2000/svg" xmlns:xlink="http://www.w3.org/1999/xlink" viewBox="0 0 252.44 281.31"><defs><linearGradient id="linear-gradient" x1="133.48" y1="216.11" x2="274.87" y2="74.71" gradientUnits="userSpaceOnUse"><stop offset="0" stop-color="#ff7300"/><stop offset="0" stop-color="#f97c00"/><stop offset="0" stop-color="#ea9502"/><stop offset="0" stop-color="#e59e03"/><stop offset=".29" stop-color="#efbf04"/><stop offset=".57" stop-color="#ffd32c"/><stop offset=".99" stop-color="#ffde21"/></linearGradient></defs><path d="M249.55,141.75c0,76.07-20.31,137.73-45.37,137.73s-45.37-61.66-45.37-137.73S204.18,4.02,204.18,4.02c0,0,45.37,61.66,45.37,137.73Z" fill="url(#linear-gradient)"/><path d="M251.97,141.04c-.02.9.39.58.47.71-.12-1.5-.58-.67-.47-.71Z" fill="#ffd947"/><polygon points="250.41 126.32 250.6 126.56 249.99 124.43 250.41 126.32" fill="#ffd947"/><path d="M248.9,112.62c-.48,1.38.74,4.94.8,7.4l-.11.42.68,1.04c-.17-1.49-.54-3.17-.8-4.76-.28-1.58-.49-3.06-.57-4.11Z" fill="#ffd947"/><path d="M249.25,105.1c-.19.5-.53-1.53.23,1.71,0-.17,0-.22.01-.32-.06-.29-.13-.7-.24-1.39Z" fill="#ffd947"/><path d="M249.49,106.49c.28,1.43.06-.98,0,0h0Z" fill="#ffd947"/><path d="M248.09,99.89c.22.61.4,1.23.6,1.84.09-.43-.19-2.12.05-1.52-.54-1.91-.62-1.47-.65-.32Z" fill="#ffd947"/><path d="M247.2,98.22l.31.95c.03-.18,0-.45-.31-.95Z" fill="#ffd947"/><path d="M248.15,101.19c-.19-.68-.41-1.35-.63-2.02-.05.29-.28.37.28.93-.24-.13.05.24.35,1.09Z" fill="#ffd947"/><path d="M248.26,102.39c.04,1.09.2,2.47-.39.62.76,3.59,1.16,2.97.39-.62Z" fill="#ffd947"/><path d="M248.06,112.03v1.44c.16.39.28.79.41,1.19-.17-.6-.21-2.75-.41-2.63Z" fill="#ffd947"/><path d="M245.78,88.14c-.18-.08-.24.73-.39.91l.51,1.34c-.07-.73-.31-2.1-.11-2.25Z" fill="#ffd947"/><path d="M245.39,89.05c-.26-.66-.49-1.33-.77-1.99.44,1.84.63,2.15.77,1.99Z" fill="#ffd947"/><path d="M246.35,98.05c.41,1.09.86,2.18,1.24,3.29-.42-1.33-.93-2.63-1.39-3.94l.15.65Z" fill="#ffd947"/><path d="M243.67,80.3c.22.35.46.7.68,1.06l-1.12-1.91.44.85Z" fill="#ffd947"/><path d="M242.07,75.16c.54.76.1-1.31.56-.47-.5-1.38-1.13-2.49-1.69-3.49.49,1.1.85,2.32,1.13,3.96Z" fill="#ffd947"/><path d="M240.04,69.51c.25.54.56,1.09.89,1.69-.26-.58-.54-1.15-.89-1.69Z" fill="#ffd947"/><path d="M243.75,83.56c.05-.18.19-.55-.02-1.73l-.19.92c.06.25.14.52.21.81Z" fill="#ffd947"/><path d="M243.53,82.78v-.03c-.22-.87-.38-1.48-.45-1.74.07.22.2.76.45,1.77Z" fill="#ffd947"/><path d="M243.8,83.76c-.02-.07-.03-.13-.05-.2-.02.09-.02.14.05.2Z" fill="#ffd947"/><path d="M245.53,92.56c-.53-1.15-1.39-3.6-1.15-1.09.5.8.36-.65,1.15,1.09Z" fill="#ffd947"/><path d="M243.56,84.9l.49,2.19c.1-.07.15-.5.43.06l-.92-2.25Z" fill="#ffd947"/><polygon points="243.14 83.87 243.56 84.9 243.37 84.09 243.14 83.87" fill="#ffd947"/><path d="M240.86,73.31c-.48-.87-.82-1.87-1.22-3,.32,1.25.69,2.53,1.08,3.73.18.13.58.58.14-.72Z" fill="#ffd947"/><path d="M242.16,77.91c-.03-.06-.06-.14-.09-.2,0,.14.02.24.09.2Z" fill="#ffd947"/><path d="M235.65,59.19c0,.07,0,.13,0,.21.03,0,.05,0,.08.01l-.08-.22Z" fill="#ffd947"/><path d="M240.7,74.26c.22.94.5,1.46.77,1.95-.24-.68-.51-1.4-.76-2.18-.08-.06-.13-.06,0,.23Z" fill="#ffd947"/><path d="M238.77,66.46c.08.51.2,1.07.33,1.66-.04-.51-.17-1.53-.33-1.66Z" fill="#ffd947"/><path d="M242.1,77.37s.04.09.06.13c0-.33-.03-.28-.06-.13Z" fill="#ffd947"/><path d="M242.1,77.37c-.2-.46-.41-.8-.62-1.15.2.55.4,1.06.6,1.5,0-.12,0-.25.02-.35Z" fill="#ffd947"/><path d="M231.79,56.87c.42.01,1.73,2.21,2.07,4.41,1.03,1.9,1.76.14,1.78-1.89-.19,0-.31.05-1.36-1.92.11.79,1.27,4.77.29,3.15-1.21-2.67-.74-2.28-1.06-3.69-.01,1.3-2.05-3.19-2.48-2.32l1.18,2.28c-.09.09-.6-.71-.43-.01Z" fill="#ffd947"/><path d="M237.09,63.37l.36.84c-.29-1-.41-1.75-.6-3.15-.72-1.36-.96-1.6-1.12-1.65l1.53,4.23-.17-.27Z" fill="#ffd947"/><path d="M238.81,68.08c-.64-.53-1.54-2.54-1.54-1.12.91,2.51.97,1.65,1.66,3.1-1.52-4.05.64,1.09-.16-1.93.35.78.63,1.49.86,2.18-.19-.76-.37-1.49-.54-2.18,0,.04,0,.07,0,.1v.02s0,0,0,0c.01.19,0,.26-.04.05,0-.01-.03-.06-.04-.08-.07,0-.14-.07-.22-.13-.33-1.21.04-.22.22.13.03,0,.06.03.08.03,0,0,0-.01,0-.02l-1.66-4.01c.25.89.64,1.97,1.36,3.87Z" fill="#ffd947"/><path d="M242.93,89.46c0-.14.04-.14.06-.16-.12-.26-.18-.35-.06.16Z" fill="#ffd947"/><path d="M242.76,87.68c.14.29.37.5.57,1.5.08.89-.2.05-.33.13.26.57.81,2.01.56.09l-.13-.28c-.25-1.72-.36-4.01-.21-3.74-.24.59-.39,1.09-.46,2.3Z" fill="#ffd947"/><path d="M240.83,77.77c-.41-1.13-.82-2.26-1.26-3.37.07.62.15,1.23.2,1.85l.19-.16c.5,1.98.64,1.48.88,1.67Z" fill="#ffd947"/><path d="M235.7,58.72l.59.29c-.44-.58-.9-1.15-1.36-1.71l.76,1.43Z" fill="#ffd947"/><polygon points="233.92 54.38 234.35 54.39 233.67 53.33 233.92 54.38" fill="#ffd947"/><path d="M165.21,198.31l.26,1.02c-.11-.48-.19-.79-.26-1.02Z" fill="#ffd947"/><path d="M164.21,190.82l-.22-.16c.15.33.25.47.22.16Z" fill="#ffd947"/><path d="M175.37,52.22c-.95,1.28-2.1,2.68-1.62,2.67l.58-.28c.32-1.03.68-1.78,1.05-2.39Z" fill="#ffd947"/><path d="M159.35,128.86c.05-.14.1-.29.16-.44-.12-.38-.24-.74-.35-1.06.04.45.13.96.19,1.5Z" fill="#ffd947"/><path d="M161.09,130.05l-.39,1.98c.12-.44.25-1.08.39-1.98Z" fill="#ffd947"/><path d="M174.8,238.27l.81,1c-.62-1.78-.56-.93-.81-1Z" fill="#ffd947"/><path d="M212.07,11.63c-.56-1.22-1.08-2.16-1.56-2.96.66,1.5,1.04,2.79,1.56,2.96Z" fill="#ffd947"/><path d="M160.22,196.01c.17.63.3.89.39.86-.17-.65-.31-1.01-.39-.86Z" fill="#ffd947"/><path d="M207.56,4.25c.2.35.39.7.59,1.06.47.63.96,1.27,1.43,1.97.31.45.61.88.93,1.4-.12-.27-.26-.56-.4-.84l-.23-.42-.12-.21-.22-.35c-.61-.93-1.3-1.85-1.98-2.6Z" fill="#ffd947"/><path d="M243.1,197.91c.03-.1.06-.23.1-.33-.05-.04-.08.11-.1.33Z" fill="#ffd947"/><path d="M251.25,154.58c.01.44,0,1.14-.02,1.81.05-.32.06-.87.02-1.81Z" fill="#ffd947"/><path d="M226.43,37.04c.46.88.11.12,0,0h0Z" fill="#ffd947"/><path d="M226.94,42.14c-.13-.17-.26-.29-.36-.27.13.03.25.13.36.27Z" fill="#ffd947"/><path d="M200.69,9.26s-.03.04-.05.07c.23-.2.19-.17.05-.07Z" fill="#ffd947"/><path d="M226.91,38.47c-.12-.36-.26-.77-.44-1.2.06.2.19.57.44,1.2Z" fill="#ffd947"/><path d="M227,38.21c.13.32.24.57.34.8.11.08.12-.04-.34-.8Z" fill="#ffd947"/><path d="M225.8,35.81c.26.51.47,1,.67,1.47-.06-.19-.07-.27-.04-.23-.13-.26-.32-.63-.63-1.24Z" fill="#ffd947"/><path d="M217.03,272.07c.05-.04.11-.08.17-.12.54-.82.27-.49-.17.12Z" fill="#ffd947"/><path d="M170.89,77.91s0-.07.01-.11c-.02.04-.04.1-.06.13l.04-.02Z" fill="#ffd947"/><path d="M170.2,81.37c-.09-1.58.22-2.38.65-3.44l-1.53.75.88,2.68Z" fill="#ffd947"/><path d="M168.55,216.08l-.13-2.49c1.24,2.78,1.47,4.91,1.53,2.55-.69-.03-1.25-2.35-1.73-4.69-.48-2.34-.96-4.68-1.65-4.74v-1.65c.08.46.17.52.23.98.13-3.23-1.38-2.15-1.82-6.22-.11-1.42-.06-2.43.24-1.5l-.8-3.09c-.09-.92.16-.73.27.19l-.74-4.78.04.03c-.3-.66-.83-2.17-1.04-2.92.06-1.25.21.6.34.26l-.62-2.63c.23-1.12.81,1.05.97,2.89,1.08-2.64-.62-2.17-.36-7.62.14.83.26,1.67.42,2.5.59-1.7.15-3.63.35-6.51-.19.69-.67,5.8-1.28,2.94.03-.83-.03-1.9-.45-3.44.48-.06.24-1.57.07-3.48l.65.08c-.34-2.05-.65-1.86-1.03-3.06-.08-2.31.39-2.82.77-3.39-.12-3.69-.64,2.6-1.02-1.77.05-3.08-.26-5.23-.8-8.9.17-2.16.4.36.56-.41l-.56-1.89c0-.47.16-.32.24-.25-.24-1.6-.64-.12-.88-2.65-.75-.67.96-5.21.13-8.34.18-.77.4.37.64.14-.47-4.28-.32-3.66-.97-7.2.17-1,.38-1.99.57-2.98-.6,2.18-1.01-.66-1.35-3.17-.27.77-.51,1.43-.63,1.88-.03-1.33-.11-2.66-.1-3.99.15-.47.33-.05.54.61-.03-.27-.06-.53-.09-.74.36-1.4.66-.63.93.4-.17.47-.34.94-.49,1.39.33,1,.72,1.94,1.1,1.76-.06-.26-.1-.76-.1-1.3.09.26.18.43.25.32.07-.13-.04-.55-.17-1.2.25-.28.52-.56.78-.84l-.26-.24.9-5.08c-.3-3.72-1.02-7.06-.37-12.92.29,1.53.8.44,1.4.62-.88,1.48-.46,4.51-.92,7.5.26-1.56.51-1.18.56-.76,0-1.81.09-3.62.17-5.43.48.2.55-1.08.97-2.43-1.19.88.04-4.08.15-6.3.35-.07.6.51.03,3.14,1.29-2.76-.49-3.99.77-6.71-.13.64-.26.98-.14,1.27.03-1.56,1.05-5.18,1.15-4.25l-.13.64c.5-2.12,1.33-5.32,1.89-8.12.63-2.78,1.03-5.15.7-5.58.12-.01.84.83.93,1.13-.23-2.75-.37-5.51-.52-8.29.5.87,2.93-1.11,2.26,2.46.38-.97.91-2.14,1.33-4.3-.32.64-1.55,1.35-1.31.41,1.61-2.27.95-1.63,2.69-4.5-.5.95-1.19-.53-.6-2.11.07.3,1.11.24,1.02.86.11-1.43.2-2.88.35-4.31-.18,1.05.83.5,1.46-.26-.35.33,1.26-3.37,1.59-4.44-.3.51-.6,1.03-.88,1.55,1.89-4.31.2-4.93,2.09-9.23,0,.62.77,1.84,1.83-.29-.12-1.22-.64-5.54.73-9.53l.64-.59c.34-1.02.67-2.04,1.03-3.06-.11,2.17-.78,8-1.33,11.05.95-1.5.55-.29,1.6-2.71.66-.72-.16,1.5-.45,2.22.88-1.84,1.78-3.67,2.71-5.49-.36-.02-.02-1.15.34-2.28.38-1.12.77-2.25.46-2.27-.78,2.09-1.49,4.22-2.22,6.32-.71-.02-.14-4.32,1.91-8.19.73-.88.71,1.28.95,1.29.02-.62,1.44-3.9,1.77-4.18l-.51,1.81c1.31-2.04.99-3.94,2.93-6.21.5-.88,2.19-2.22,1.92-2.57-1.46,1.06-3.7.23-3.68-1.01.11-.14.92-1.22,1.79-2.37.9-1.14,1.88-2.34,2.33-2.75,1.34-1.14.01,2.88,1.16,1.91-.13-.14.12-1.05.25-1.42.67-.83.27.66,1.36-1.36-.41-.68,2.43-3.99.05-1.23.99-2.03,1.33-1.99,2.69-4.24-.82.49-.03-2.81,1.04-4.82.07.21.54-.1.76-.25,1.4-2.08,2.47-3.46,3.49-4.72.79,1.23,1.58,2.47,2.57,4,.02.33,1.02,2.23.28,1.63.44.45.94.8,1.66,1.92.88,2.48-1.66-2.44-1.21-.41.43-.08,2.3,2.6,3.48,4.09.23-.82-2.19-3.79-3.42-5.24.7-.47,3.25,1.83,5.92,5.52,2.02,2.99.32,1.62.75,2.1,3.25,5.91,4.16,4.27,6.3,9.51.57,2.22-.9.59-1.01,1.21-1.54-2.49-1.83-4.11-2.81-5.84l.96,2.26c-.6-.73-1.67-2.37-2.06-3.37.25.92,1.62,3.41,3.14,6.3,1.52,2.88,3.18,6.16,4.11,8.59.56.75,1.43,2.1,1.29,1.33l-.79-1.45c-.27-1.55,1.9,2.52,1.16.56,1.26,1.85,2.73,3.9,3.82,6.84l-.32.79c.15-.14-.51-2.01-1.05-2.72.82,1.06,1.21,4.69,2.52,5.66l-.5-2.17c1.2,1.9,2.88,4.18,3.77,6.81.07-1.4-.31-.56-.43-2.65-.08.96-.74-.68-1.4-2.19-.66-1.5-1.28-2.89-1.15-1.45-.06-2.19-1.1-3.34-1.59-6.03-.15.16.04,1.01-.85-1.14-.1-.07-.27-.26-.38-.39-.02-.07-.03-.09-.06-.15.01.05.02.08.03.13-.07-.08-.08-.08.01.05.16.54.25.99.22,1.21-.89-.86-2.52-4.17-3.28-5.19-.54-1.27.47.41.32-.36l-1.17-1.5c.32-.37-.99-3.61.71-.83-.44-.87-.87-1.75-1.32-2.62-.58-1.64-1.6-3.8-2.48-4.99-.57-1.27-2.13-2.82-1.23-1.94-.84-1.29-1.66-2.58-2.52-3.86l.08-.09c-1.11-1.98-2.47-3.89-3.82-5.9-.67-1.01-1.35-2.03-1.99-3.11-.32-.54-.64-1.09-.94-1.65l-.24-.46-.38-.67c-.26-.46-.52-.93-.79-1.4-1.18-1.6-2.35-3-3.97-5.3-.38.5-.82,1.08-1.29,1.7-.18.03-.37.06-.56.11-.46.71-1.06,1.52-1.7,2.41-.65.91-1.34,1.88-2,2.8-.21.29-.41.58-.6.85-.18.25-.34.49-.47.71-.27.44-.45.81-.48,1.04-2.06,1.22-5.21,8.01-7.04,10.94l.38.36c-1.2,2.05-2.17,4.12-3.37,6.82l.48.05c-.86,2.41-3.31,5.62-5.01,9.27-.03-.32.45-1.22.86-1.82-3.06,3.86-3.66,9.45-6.08,13.12-.27,1.06-.63,1.76-1.03,2.42.04-.09.07-.18.08-.26-.04.1-.11.25-.18.41-.26.41-.53.83-.8,1.3.28-.38.53-.74.71-1.07-.31.78-.77,1.96-1.12,3.16l-.64.31c-.03.1-.06.17-.09.27-.62,1.07-.15,1,.43.53-.16.61-.28,1.18-.34,1.63-1.1.63-.94,3.12-2.18,4.1.05.46-.44,1.95-.84,3.44-.38,1.5-.71,2.99-.41,3.44-.12,0-.29.33-.08-.3-.55,1.27-1.1,2.54-1.24,3.8l-.76.37-.15,3.12c-.92,1.63-1.32,2.31-1.25.42-.56,4.43-.79,3.5-1.12,7.29l-.33-.28c-.34,1.3-.38,3.49-.91,4.18-.39.67-.8,1.9-1.24,3.49-.43,1.59-.97,3.52-1.4,5.62-.96,4.18-1.88,8.97-2.84,12.71,1.38-1.29-1.06,3.46-.21,3.89-.34.4-.66,1.44-.71.18-.27,3.93-1.19,5.82-.74,8.6-.32.42-.33-.88-.53-.5.03.32.13,1.27-.07,1.66-.2.38-.18-.6-.24-1.23-.31,4.02.5,4.5,1.27,4.85-.58,1.99-.54,3.01-.1,4.5-.3.69-.64,1.85-.59-.64-.06.7-.27,2.83-.39,4.81-.05,1.98,0,3.81.31,3.89-.17.44-.08,1.96-.02,2.32-.06,3.14-.08,3.41,0,6.48l.1-.85c.78,1.2.18,2.55.35,5.02l-.08-.07c-.4,5.69.29,2.44-.11,8.06l.47-.32c1.04.48-.4,4.98.21,8.21l.2-1.19c.23.88-.05,2.13-.39,3.4-.32,1.27-.69,2.54-.69,3.44-.06.4-.19-.6-.3-1.14-.25,4.72.67.56,1.08,4.02-.28.67-.94-.75-.79,1.59-.17,1.2,1.72,6.68,1.46,9.93.18-.73.36-1.46.74.13.35,2.45-.15,6.79.97,8.9-.02.32-.07.45-.14.47.48,1.85,1.26,6.05,1.91,7.1-1.4,2.03,2.9,11.45,1.45,11.69.43,1.9.85,3.81,1.34,5.69l-.19-.11c.74,3.67,1.45,4.86,2.13,6.04.12.86-.18.29-.28.24.52,2.69.91,4.14,1.35,5.47.44,1.32,1.01,2.49,2.07,4.56l-.33.61c.6,1.09,1.74,7.79,4.38,12.57-.07-.03-.2-.09-.44-.46.72,1.35,1.34,2.89,2.01,4.45.31.79.63,1.58.94,2.35.33.77.66,1.53.98,2.26,1.3,2.91,2.69,5.29,4.08,5.74l1.28,1.58,1.37,1.51c-2.93-4.3,1.08.18.08-1.73.64.78,1.28,1.92,1.61,2.61.35.67.32.94-.51,0l-.16-.37c-.32-.04-.27.28,0,.78.29.49.81,1.15,1.34,1.83.52.7,1.15,1.33,1.58,1.85.43.51.69.89.55.98,1.92,1.8,3.94,3.52,6.33,4.78.58.33,1.16.67,1.8.9.63.25,1.24.53,1.89.74l1.98.5c.66.18,1.35.18,2.03.27,2.71.2,5.52-.17,7.96-1.22.64-.2,1.23-.51,1.8-.82.57-.31,1.19-.58,1.72-.94,1.06-.73,2.16-1.41,3.08-2.27l-1.33.18c.86-.75,1.79-1.44,2.6-2.25.72-.54,1.3-.43-.54,1.25.66-.25,1.3-1.09,1.81-1.83.51-.74.83-1.42.78-1.5,3.28-3.46-.55,2,.39.88l1.25-1.57-.36.29c.41-.72.57-1.15.87-1.69.27-.55.66-1.21,1.53-2.37,1.18-1.41.9-.52,1.33-1.11.04.03.19-.16.62-.92.81-1.17,1.53-2.4,2.25-3.62l-1.34,1.18c.69-1.77,2-3.42.46-2.06,1.16-.98,3.04-4.44,4.59-7.88.74-1.73,1.45-3.45,2-4.83.53-1.39.94-2.43,1.17-2.81.28-1.28.58-2.54.99-3.84.42-1.29.87-2.65,1.36-4.15-.35.71-1.11.96-.22-1.61,1.02,1.35,1.99-4.61,3.48-6.49-1.1,1.75,1.78-7.56.14-4.78.63-2.19.52-.01,1.22-1.62.78-5.38,2.91-11.6,3.84-18.24-.16-.13-.61.93-.63-.53.48-1.11.98-2.22,1.44-3.35.11-1.32-.82-1.35.13-3.65-.2.32-.49.79-.42-.1,1.34-6.42,1.95-13.1,2.45-19.79.48-6.7.93-13.4,1.97-20.02-.42,1.79-.4.59-.35-.79-.12.89-.43-.04-.68.13l.81-5.54c-.61-1.03.04-5.97-.59-6.55l.1,1.76c-.73-2.34-1.68,3.25-2.65,2.89.78,2.63-1.4,6.83-.4,11.13-.24.93-.27-.82-.52-.32.36,1.1.41,2.41.08,4.82l-.09-.28c-.14,3.4-.37,5.82-.7,8.34-.3,2.52-.71,5.13-1.2,8.92l.52-.52c-.21,1.63-.41,1.96-.61,2.71.25.97.39-.17.54-1.33.13-1.17.27-2.35.58-1.46-.56,1.04-.9,3.91-1.23,6.7-.34,2.78-.76,5.47-1.38,6.13-.34,2.5.65-.66.3,1.84l-.39.62.28.69c-.31,1.63-.8,2.4-1.05,2.42.09-.39.1-1.14.14-1.56-.64,2.07-.82,5.98-1.06,6.69l.58-2.36c-.81,6.84-2.84,14.99-3.85,21.56l.33-.44c-.87,5.02-1.2,3.89-2.55,9.29v-.21c-.07,1.14-.41,2.59-.9,4.03.17-1.42-1.28,2.36-1,.52-1.28,5.34-.53,2.67-.91,6.39l-.65.65c-.13,1.27.02,1.44-.91,4.07.56-2.23-1.18,1.43-.63-1.09-1.47,2.53-2.11,4.58-2.73,6.23-.57,1.67-1.1,2.94-2.24,3.84-.15,1.41.55.37,1.22-.85.7-1.21,1.24-2.67,1.05-1.94.41-.5.36.08.09,1-.28.91-.83,2.11-1.29,2.91-.42.83-1.11,1.36-1.96,2.19-.42.41-.89.9-1.38,1.53-.53.61-1.1,1.36-1.72,2.32.25-.38.2-.45.45-.83-1.12,1.31-1.6,2.98-3.2,4.38-.28,1.28-1.73,2.06-1.41,2.8.48-.5.87-1.1,1.3-1.65.42-.56.87-1.09,1.24-1.69-.61,1.04-1.2,2.06-1.89,3.24-.8,1.09-1.77,2.37-3.45,3.44.12-.34.89-1.22,1.37-1.87-.47.34-.88.68-1.27,1.08-.4.38-.78.8-1.32,1.05-.08-.38.8-1.26,1.93-2.24.53-.55,1.1-1.15,1.62-1.74.54-.58.93-1.26,1.23-1.83-.96.77-2.79,3.85-2.52,2.36-.21,1.06-1.09,1.73-2.06,2.49-.47.41-1.06.68-1.59,1.11-.27.2-.54.43-.81.66-.28.21-.56.44-.83.7l-.06-.51c-.36.26-1.07.98-1.88,1.22l.57-.55c.18-.19.35-.42.52-.62-.43.42-.94.63-1.45.81-.51.17-1.03.36-1.56.36-.53.04-1.04.09-1.54.15-.51-.01-1.01.02-1.51.13,2.13-.12,2.38-.21,2.36.03-.03.2-.38.52.6.47-1.34.55-2.29.5-2.96.5-.67-.03-1.09-.31-1.51-.5-.21-.11-.42-.21-.66-.32-.24-.1-.51-.29-.84-.42-.33-.15-.73-.27-1.22-.44-.48-.22-1.06-.45-1.78-.69.4.11,1.08.45,1.53.74.22.15.38.27.41.33.03.06-.09.14-.42.06-.54-.27-1.16-.57-1.7-.88-.52-.39-.98-.76-1.23-1.04-.47-.21-.79-.42-1.02-.57-.24-.14-.38-.21-.47-.24-.17-.05-.08.1.07.29.3.39.86.99.02.58-.45-.67-.9-.92-1.48-1.13-.55-.26-1.2-.5-2.01-1.08l.31-.37c-1.72-1.87-2.1-1.99-2.49-2.01-.37-.03-.68-.06-2.06-1.99l1.78,1.09-1.69-1.76.75.05c-1.91-1.85-2.34-2.59-3.6-4.88.02.35-.21.39-.61.11-.41-.28-.96-.92-1.54-1.94-.54-1.54.83.56-.86-2.31.62.52,1.37,1.03,1.69,2.51.21.05.63.48.83.54-.57-1.64-2.07-3.75-2.59-4.84.19.42.42.92.49,1.2-.92-1.32-1.89-2.63-2.75-4.02-.16-.77.23-.28.61.2-.46-.86-.94-1.39-1.59-2.68.51.18.85-.06,1.87,1.69l-1.16-1.99-1.09-2.04c.04-.35-.48-2.35-.11-1.86-.36-1.22-1.08-2.62-1.85-4.12-.73-1.51-1.47-3.15-1.88-4.8-.13-.15-.3-.46-.57-1.14-.9-3.08-1.23-5.93-2.73-9.46l.14-2.26c-.9-2.84-.13,3.05-1.63-1.69-1.02-3.38.28-1.42.19-2.67-.76-1.61-2.12-4.44-2.21-7.73.35,1.02.42,1.86.68,2.83ZM162.76,179.64c.17.7.61,2.09.38,2.64-.63-.76-.42-1.41-.38-2.64ZM160.72,123.5c.11.55-.04,1.36-.3,2.27.02-.68.11-1.44.3-2.27ZM221.14,27.49s-.04-.04-.06-.06c-.59-1.52-.39-.98.06.06ZM222.52,30.57c.21.27.26.22.26.06-.21-.16-.57-.82-.94-1.6,0,.27.13.69.69,1.53ZM226.15,265.89l-.47.49c.7-1.34.58-.92.47-.49Z" fill="#ffd947"/><path d="M160.89,129.89c-.09.2-.18.25-.28.29.07.29.16.3.28-.29Z" fill="#ffd947"/><path d="M174.65,238.08l.03.11s.08.07.12.08l-.14-.19Z" fill="#ffd947"/><path d="M195.4,21.56c-.4.56-.66.85-.86,1.02.08.09.32-.13.86-1.02Z" fill="#ffd947"/><path d="M230.95,46.31l-.99-1.92c.45.94.5,1.33.64,1.84.08-.09.07-.53.35.08Z" fill="#ffd947"/><path d="M235.14,64.73c.16.27.23.62.38.89l.18-.16c-.45-1.26-.97-2.06-.57-.74Z" fill="#ffd947"/><path d="M230.29,48.78c-.31.32.34,1.5,1,2.86-.04-.08-.07-.16-.1-.25.7.19-.1-1.22-.89-2.61Z" fill="#ffd947"/><path d="M231.43,51.95c.2.42.39.85.55,1.28.28.08-.18-.54-.55-1.28Z" fill="#ffd947"/><path d="M224.7,34.25c.23.69.66.17.69.61.83.48-2.71-3.99-.69-.61Z" fill="#ffd947"/><polygon points="229.53 50.43 229.78 49.73 229.09 49.12 229.53 50.43" fill="#ffd947"/><path d="M225,39.49l.89,2.23c.06-.07.23.19.43.51-.61-1.35-1.2-2.86-1.31-2.74Z" fill="#ffd947"/><path d="M226.31,42.23c.32.7.64,1.36.89,1.71-.18-.38-.57-1.18-.89-1.71Z" fill="#ffd947"/><polygon points="228.09 47.49 227.9 46.8 227.25 45.24 228.09 47.49" fill="#ffd947"/><path d="M212.95,16.73l-1.47-2.17c-.28-.14,0,.52.55,1.32.42.47.98,1.27.92.84Z" fill="#ffd947"/><path d="M215.7,24.25c-.26-.66-.18-.76-.23-1.19l-.58.24.81.95Z" fill="#ffd947"/><path d="M211.79,17.75c-.28-.14-2.37-2.98-.64-.18.29.13,1.73,2.31.64.18Z" fill="#ffd947"/><polygon points="191.94 24.22 192.26 23.64 191.32 23.23 191.94 24.22" fill="#ffd947"/><path d="M179.27,56.39c1.37-2.75-.31-.92,1.04-3.36.06-.76-1.11,1.99-1.02,1.23-.48,1.81-.95,2.67-.02,2.12Z" fill="#ffd947"/><path d="M179.29,54.26c.08-.29.16-.6.23-.93-.15.52-.2.77-.23.93Z" fill="#ffd947"/><polygon points="251.95 147.27 252.18 145.27 251.83 146.55 251.95 147.27" fill="#ffd947"/><path d="M251.23,143.42l.65-.47-.58-1.2c.03.45.07,1.33-.08,1.67Z" fill="#ffd947"/><path d="M163.58,174.06l-.17-.14c-.15.32-.12.78-.08,1.71l.25-1.57Z" fill="#ffd947"/><polygon points="166.21 200.67 166.15 200.22 165.7 201.16 166.21 200.67" fill="#ffd947"/><path d="M171.29,222.47c-.18-.89-.55-1.9-.74-2.8.56,1.91.08,3.21.74,2.8Z" fill="#ffd947"/><path d="M195.04,46.25c.07-.12.11-.19.13-.23-.28.48-.12.22-.13.23Z" fill="#fcd763"/><polygon points="192.53 51.08 192.55 50.98 192.24 51.72 192.53 51.08" fill="#fcd763"/><path d="M190.29,55.65c.35-.37.75-1.68,1.21-2.47l.09-.12.1-.41c-.5.99-1.04,2.31-1.4,3Z" fill="#fcd763"/><path d="M188.75,57.95c.14-.12-.2.55.31-.56-.03.05-.05.07-.07.1-.05.1-.12.23-.24.46Z" fill="#fcd763"/><path d="M188.99,57.48c.24-.48-.21.29,0,0h0Z" fill="#fcd763"/><path d="M187.94,59.74l.23-.67c-.11.12-.39.68-.32.46-.28.67-.16.56.09.22Z" fill="#fcd763"/><path d="M187.81,60.41l.12-.35c-.05.05-.09.14-.12.35Z" fill="#fcd763"/><path d="M188.2,59.33l-.26.73c.08-.08.14-.06.13-.33.03.08.04-.08.14-.4Z" fill="#fcd763"/><path d="M188.41,58.94c.21-.34.46-.79.22-.13.56-1.23.35-1.11-.22.13Z" fill="#fcd763"/><path d="M190.33,55.96l.26-.46.14-.44c-.07.22-.46.91-.4.9Z" fill="#fcd763"/><path d="M185.96,63.7c.03.06.24-.16.33-.18l.16-.5c-.15.23-.4.68-.49.68Z" fill="#fcd763"/><path d="M186.29,63.51c-.08.25-.16.5-.23.75.29-.64.31-.77.23-.75Z" fill="#fcd763"/><polygon points="187.99 60.62 188.36 59.38 187.89 60.85 187.99 60.62" fill="#fcd763"/><polygon points="184.74 66.44 184.78 65.98 184.68 66.78 184.74 66.44" fill="#fcd763"/><path d="M183.98,68.27c.01-.35-.39.34-.32-.01-.2.5-.28.97-.34,1.38.12-.43.32-.85.67-1.37Z" fill="#fcd763"/><path d="M183.2,70.34c.05-.22.08-.45.11-.7-.06.23-.1.46-.11.7Z" fill="#fcd763"/><path d="M185.51,65.48c-.06.04-.19.11-.41.5l.28-.22c.04-.09.08-.18.12-.28Z" fill="#fcd763"/><path d="M185.4,65.76h0c-.13.31-.23.53-.27.62.03-.08.12-.26.28-.62Z" fill="#fcd763"/><path d="M185.54,65.41s-.02.05-.03.07c.03-.02.04-.04.03-.07Z" fill="#fcd763"/><path d="M187.04,62.45c-.11.45-.4,1.36.09.56.03-.34-.25.12-.09-.56Z" fill="#fcd763"/><path d="M185.89,65.14l.35-.75s-.16.11-.12-.11l-.24.87Z" fill="#fcd763"/><polygon points="185.78 65.53 185.89 65.14 185.76 65.42 185.78 65.53" fill="#fcd763"/><path d="M183.91,69.09c-.06.36-.21.73-.35,1.15.2-.43.42-.88.6-1.31-.03-.08-.05-.31-.25.16Z" fill="#fcd763"/><path d="M184.65,67.48s-.01.05-.02.08c.03-.04.05-.07.02-.08Z" fill="#fcd763"/><polygon points="181.99 74.32 182.05 74.26 182.02 74.24 181.99 74.32" fill="#fcd763"/><path d="M184.23,68.86c.17-.32.21-.53.23-.74-.09.25-.18.52-.3.8.01.04.03.05.06-.06Z" fill="#fcd763"/><path d="M182.84,71.51c.11-.16.22-.34.33-.54-.13.15-.36.46-.33.54Z" fill="#fcd763"/><path d="M184.54,67.65v-.05c-.07.09-.05.09,0,.05Z" fill="#fcd763"/><path d="M184.54,67.65c-.05.18-.06.33-.08.48.07-.21.13-.4.17-.57-.03.04-.07.07-.1.09Z" fill="#fcd763"/><path d="M182.95,76.04c-.19-.13-.06-1.08.42-1.77.11-.8-.69-.53-1.31,0,.08.05.16.08-.01.89.22-.23.89-1.62.83-.91-.27,1.06-.37.81-.66,1.27.4-.34-.09,1.43.39,1.34.05-.32.1-.63.17-.95.06,0,.05.36.19.13Z" fill="#fcd763"/><path d="M182.63,72.81l.1-.32c-.17.35-.35.58-.69,1-.11.56-.08.69-.02.75l.62-1.55v.12Z" fill="#fcd763"/><path d="M183.28,71.06c.1.32-.1,1.11.3.72.33-.93.07-.71.2-1.3-.52,1.52.06-.47-.47.57.08-.31.17-.57.26-.83-.13.26-.26.51-.39.74,0-.01.02-.02.03-.03h0s0,0,0,0c.05-.06.07-.07.03,0,0,0,0,.02,0,.03.02.02.04.06.05.09-.21.42-.08.05-.05-.09,0,0-.01-.02-.02-.03h0s-.47,1.54-.47,1.54c.15-.31.3-.71.54-1.42Z" fill="#fcd763"/><path d="M187.11,63.92s-.04.03-.05.03c-.02.1-.02.14.05-.03Z" fill="#fcd763"/><path d="M186.77,64.5c.02-.12,0-.23.16-.57.17-.28.07.03.13.03.05-.23.2-.78-.15-.15l-.02.11c-.3.57-.79,1.27-.78,1.15.21-.12.38-.23.67-.58Z" fill="#fcd763"/><path d="M185.08,67.84l-.41,1.27.41-.57h-.11c.31-.69.14-.58.11-.7Z" fill="#fcd763"/><polygon points="181.83 74.42 181.66 74.18 181.71 75.01 181.83 74.42" fill="#fcd763"/><polygon points="181.23 76.06 181.04 75.93 181.02 76.4 181.23 76.06" fill="#fcd763"/><path d="M173.81,172.51l.14.38c-.05-.18-.1-.29-.14-.38Z" fill="#fcd763"/><path d="M173.58,169.71l-.2-.05c.12.12.2.17.2.05Z" fill="#fcd763"/><path d="M170.58,117.45c-.42.52-1.05,1.08-.63,1.07l.42-.12c0-.41.08-.71.21-.95Z" fill="#fcd763"/><path d="M170.62,146.74c.04-.05.09-.11.13-.16-.14-.14-.28-.27-.4-.39.08.17.17.36.27.56Z" fill="#fcd763"/><path d="M172.4,147.17l-.3.74c.1-.17.2-.4.3-.74Z" fill="#fcd763"/><path d="M176.04,187.63l.47.38c-.11-.7-.26-.36-.47-.38Z" fill="#fcd763"/><path d="M175.91,93.07c-.25.45-.41.81-.52,1.14.34-.53.74-.93.52-1.14Z" fill="#fcd763"/><path d="M169.22,171.81c.1.23.2.33.29.31-.1-.24-.19-.37-.29-.31Z" fill="#fcd763"/><path d="M175.01,95.59c.06-.08.09-.16.15-.23.04-.36.1-.72.23-1.15-.25.39-.47.86-.38,1.38Z" fill="#fcd763"/><path d="M189.81,241.42s.02.09.03.13c.03,0,0-.05-.03-.13Z" fill="#fcd763"/><path d="M195.58,256.71c-.08-.14-.21-.37-.33-.59.06.11.15.28.33.59Z" fill="#fcd763"/><path d="M178.8,82.63c.1-.36-.01-.07,0,0h0Z" fill="#fcd763"/><path d="M180.41,81.25c0,.08.02.15.08.18-.05-.05-.08-.11-.08-.18Z" fill="#fcd763"/><path d="M176.21,99.64s0,.02,0,.03c.09-.09.07-.08,0-.03Z" fill="#fcd763"/><path d="M179.1,82.14c-.08.12-.16.26-.23.42.05-.07.12-.19.23-.42Z" fill="#fcd763"/><path d="M178.95,82.18c.05-.12.09-.21.13-.3-.03-.06-.07-.03-.13.3Z" fill="#fcd763"/><path d="M178.66,83.13c.06-.2.13-.39.21-.56-.04.06-.06.09-.07.07-.03.1-.07.25-.14.49Z" fill="#fcd763"/><path d="M179.97,213.19s0,.05,0,.08c.22.32.16.17,0-.08Z" fill="#fcd763"/><path d="M173.59,127.44s-.01-.03-.02-.04c0,.02-.01.04-.02.05h.04Z" fill="#fcd763"/><path d="M173.77,128.77c-.46-.6-.37-.91-.22-1.32l-1.23.31,1.45,1.01Z" fill="#fcd763"/><path d="M174.6,179.17l.26-.95c.74,1.02.63,1.83,1.04.92-.65.02-.79-.86-.93-1.74-.14-.88-.23-1.76-.89-1.75l.22-.63c0,.17.08.19.08.36.52-1.23-1.02-.77-.98-2.3.05-.54.21-.92.4-.58l-.43-1.14c0-.34.23-.28.24.06l-.27-1.78h.04c-.23-.23-.62-.78-.76-1.05.17-.47.15.22.31.09l-.38-.97c.32-.43.71.37.69,1.06,1.28-1.03-.38-.8.29-2.85l.22.92c.73-.65.41-1.36.83-2.44-.24.26-1.08,2.19-1.47,1.13.08-.31.11-.71-.19-1.28.48-.03.33-.59.26-1.3h.64c-.23-.74-.55-.66-.86-1.1.01-.86.5-1.06.9-1.27.04-1.37-.76.98-.94-.64.22-1.15-.05-1.94-.46-3.29.21-.8.39.13.57-.16l-.52-.69c0-.17.17-.12.25-.09-.21-.59-.64-.04-.83-.97-.71-.25.99-1.94.17-3.09.18-.29.39.14.64.05-.56-1.59-.4-1.36-1.08-2.68l.44-1.11c-.5.81-1.04-.24-1.49-1.17-.24.29-.45.54-.55.7l-.31-1.48c.11-.18.32-.02.58.22-.05-.1-.1-.2-.15-.27.25-.52.61-.24.96.14l-.41.52c.38.37.8.72,1.18.65-.07-.1-.13-.28-.16-.48.1.1.2.16.26.12.07-.05-.07-.2-.23-.45l.72-.32-.28-.09.48-1.9c-.66-1.39-1.77-2.62-1.89-4.82.48.57.83.16,1.44.22-.69.56.17,1.69.03,2.81.08-.59.37-.44.47-.29-.19-.68-.37-1.35-.52-2.03.5.07.4-.41.64-.92-1.01.35-.57-1.53-.82-2.36.33-.03.66.19.52,1.18.81-1.05-1.07-1.49-.37-2.53,0,.24-.07.37.1.48-.26-.59.06-1.96.32-1.62v.24c.1-.8.17-2.03.13-3.1-.01-1.06-.15-1.97-.55-2.13.11,0,.96.3,1.12.42-.82-1.04-1.63-2.09-2.43-3.15.67.33,2.41-.47,2.67.9.14-.37.3-.83.13-1.67-.12.25-1.06.54-1.09.18.86-.9.48-.64,1.25-1.77-.18.37-1.22-.18-1.12-.8.15.12,1.06.07,1.15.31-.3-.55-.61-1.11-.88-1.67.13.41.87.18,1.21-.13-.23.13.19-1.32.15-1.75l-.33.62c.39-1.71-1.21-1.91-.91-3.63.18.24,1.22.7,1.46-.15-.46-.47-2.25-2.16-2.38-3.75l.34-.25-.11-1.23c.31.43.77,1.22,1.21,2.05.47.84.93,1.71,1.17,2.32.32-.61.37-.13.47-1.1.32-.3.35.59.33.88.16-.74.29-1.49.48-2.22-.61,0-.31-1.81-.81-1.81.07.85.12,1.7.21,2.54-.63,0-1.45-1.69-1.06-3.27.3-.37.98.48,1.18.48-.17-.24-.13-1.58.04-1.7l.2.73c.36-.85-.52-1.59.21-2.55.1-.36.91-.96.58-1.09-.74.48-2.75.22-3.16-.28.07-.12.97-1.83,1.39-2.18.62-.5.98,1.14,1.52.71-.15-.05-.26-.42-.29-.57.21-.36.43.25.53-.6-.52-.25.39-1.69-.39-.49.01-.85.29-.85.47-1.81-.42.23-1.01-1.12-.97-1.98.12.08.34-.07.44-.14.4-1.67.85-2.51,1.24-4.07.16-.11.49-.83.63-.45-.04-.25-.15-.49-.05-.98.65-.82-.19,1.09.5.51-.28-.13-.1-1.34-.11-2.07-.49.1-.48,1.56-.46,2.28-.62-.15-.97-1.5-.81-3.2.19-1.33.53-.46.5-.71.74-2.4-.41-2.33.59-4.22.59-.69.71.16,1.02.06-.16,1.08-.69,1.54-.88,2.25l.42-.82c.02.37-.08,1.09-.3,1.44.52-.58,1.23-4.05,2.03-5.82-.02-.36.03-.97-.18-.74l-.12.6c-.43.46-.05-1.22-.39-.51.05-.84.07-1.8.58-2.85l.42-.09c-.11,0-.45.65-.44.99,0-.51,1.03-1.53.74-2.18l-.5.69c.08-.84.06-1.92.5-2.86-.48.33-.04.24-.67.8.7-.44-.89,2.48-.03,1.68-.72.56-.62,1.16-1.36,1.96.13,0,.35-.26,0,.54.02.05.04.15.04.21-.01.02-.02.03-.03.05l.03-.04s0,.05.01-.02c.12-.18.24-.32.33-.36.13.49-.29,1.79-.27,2.28-.21.47-.08-.25-.3-.02l.02.73c-.3-.02-.88,1.16-.68-.04l-.34,1.03c-.36.56-.69,1.39-.73,1.94-.22.47-.05,1.33-.16.84-.1.56-.22,1.12-.3,1.69h-.08c-.5,1.61-.37,3.47-1.48,5.18-.06.57-.12,1.16-.45,2.05l-.34.11c-.06.73-.81,2.06-.57,2.44-1.01.58-1.01,3.41-1.45,4.62l.41.13c-.22.86-.25,1.71-.29,2.82h.39c.13.99-.73,2.33-.97,3.81-.13-.13-.02-.49.12-.74-.61.8-.63,1.75-.61,2.69.04.94.14,1.86-.32,2.61.09.42,0,.7-.15.97,0-.04,0-.07,0-.1-.01.04-.02.1-.03.16-.1.17-.21.34-.3.52.12-.15.23-.3.29-.43-.04.31-.06.78-.03,1.25l-.47.13s0,.07,0,.11c-.23.43.15.39.52.2.04.24.09.46.17.64-.77.27.06,1.23-.78,1.63.31.35-.04,2.34.75,2.67-.11,0-.17.13-.15-.12-.15.5-.29,1-.12,1.48l-.6.15.66,1.2c-.43.64-.66.9-1.04.18.51,1.7.11,1.35.65,2.79l-.37-.1c-.04.5.39,1.33.04,1.6-.84,1.05-.48,5.47-1.37,8.28,1.19-.5-.6,1.3.28,1.46-.28.15-.44.55-.67.07.23,1.47-.49,2.18.24,3.21-.28.16-.39-.32-.56-.18.06.12.23.47.06.62-.17.14-.22-.22-.34-.46,0,1.5.85,1.67,1.64,1.79-.39.74-.35,1.12.16,1.67-.27.26-.55.69-.62-.23-.05.52-.46,3.18.18,3.23-.17.16-.04.73.04.86-.02,1.17-.07,1.27.01,2.41l.1-.32c.78.44.19.95.3,1.87l-.08-.02c-.51,2.13.28.9-.31,3.01l.48-.13c1.04.16-.6,1.87-.13,3.06l.25-.45c.39.64-1.28,1.91-1.37,2.59-.08.15-.16-.22-.23-.42-.5,1.78.64.19.86,1.48-.32.26-.87-.26-.88.62-.24.46,1.25,2.47.68,3.7.24-.28.48-.56.71.03.14.91-.73,2.57.15,3.33-.06.12-.12.17-.18.18.28.69.57,2.25,1.05,2.63-.77.41-.46,1.48-.15,2.47.33.98.69,1.87-.04,1.96l.38,2.14-.15-.04c.1,1.39.51,1.83.92,2.27-.05.33-.22.12-.3.1-.02,2.05.09,2.25,1.08,3.81l-.42.25c.34.41-.19,3.01.68,4.88-.05-.01-.15-.04-.24-.18.89,2.11-.07,5.49,1.62,5.98l.68,1.36c-.27-1.89.71.14.81-.68.23.71-.07,1.99-.33,1.11l.05-.16c-.87-.16.25,2.37-.28,2.44.47,1.82.82,3.64,1.17,5.44.38,1.79.78,3.54,1.26,5.24l.42-.54.3,1.19c-.03.34-.29.53-.51-.32-.17.53.65,1.34.77,1.34.29,1.7-.8-.47-.66.04.08.23.16.45.25.67v-.17c.4.49.63.48.93,1.49.1.66-.21.42-.14.67-.04,0-.03.1.11.39l.43,1.49.2-.71c.4.6.42,1.39.64.58-.39,1.21,1.59,5.54,1.62,6.2.57.82.85,1.72,1.24,2.83-.04-.3.27-.59.57.38-.86-.09.33,1.84.12,2.79.07-.8,1.12,2.65,1.16,1.41.25.81-.23.14-.15.79,1.02,1.76,1.54,4.15,2.64,6.38.08,0,.02-.42.34.03l.2,1.33c.24.43.56.25.71,1.16,0-.14,0-.34.16-.05.82,2.29,2.01,4.48,3.1,6.72,1.15,2.21,2.23,4.46,3.35,6.65-.28-.6-.06-.22.18.23-.15-.3.05-.02.04-.09.3.62.6,1.24.93,1.84.23.31,1.1,1.92,1.23,2.1l-.32-.57c.43.75-.51-1.1-.38-1.02-.23-.43-.51-1-.79-1.67-.28-.66-.57-1.41-.98-2.09-.12-.33.17.25.12.07-.22-.34-.44-.77-.79-1.61l.06.08c-1.03-2.32-1.42-3.34-2.42-6.01l-.05.25c-.22-.57-.22-.71-.3-.99-.47-.56.64,1.6.19,1.1-.04-.87-1.69-3.97-1.5-4.65-.33-.88-.09.34-.42-.54v-.28s-.21-.16-.21-.16c-.2-.58-.18-.93-.09-.99.04.14.18.39.24.53-.15-.8-.84-2.09-.89-2.36l.25.87c-1.04-2.35-1.88-5.38-3-7.6l-.05.22c-.82-1.72-.36-1.48-1.13-3.41l.05.06c-.25-.35-.5-.85-.67-1.4.31.45-.03-1.03.35-.44-.87-1.87-.5-.9-1.39-2.03l.12-.37c-.34-.37-.46-.38-.83-1.35.45.75.14-.74.69.08-.14-2.24-1.49-2.92-.98-4.12-.94-.75.14,1.93-.15,1.43-.08.52-.73-.64-.85-1.32-.18-.67.53-1.4.06-3.08.04.17.1.16.14.33,0-.68-.59-1.16-.51-2.02-.56-.31-.25-1.01-.84-.98.17.51.37,1.01.56,1.51-.4-.83-1.28-1.47-1.33-3.01.15.08.41.47.57.74.06-.47-.32-.79-.26-1.27.61-.03.59,1.86,1.28,2.67.1-.52-.86-1.67-.13-1.36-.95-.46-.31-1.7-1.21-2.68l.37-.02c-.1-.17-.36-.5-.44-.83l.61.48c-.62-.82-.09-1.88-.53-2.71.47,1.86-.33.53-.4,1.38-1.07-2.17.63-1.57-.11-4.1.13.34.06,1.37-.23.86-.03-.51-.03-1.2.11-1.55-.45-1.69-.33.36-.72-.32.34-.69-.37-.8-.69-1.52l.39-.09c-.17-2.01-.95-.33-1.01-2.17l.71.63c-.12-.29-.22-.59-.33-.89l.49.09c-.52-.93-.5-1.26-.55-2.27-.24.29-.76.03-.95-.84.13-.64.46.25.16-.97.31.23.69.47.41,1.08.14.03.31.22.45.25.16-.7-.23-1.62-.32-2.06.02.17.03.38,0,.5l-.92-1.68c.1-.31.27-.11.44.09-.11-.35-.36-.57-.49-1.09.37.07.72-.02,1.02.7-.24-.54-.46-1.09-.67-1.63.13-.14.28-.95.44-.75.07-.98-1.03-2.21-.96-3.51-.08-.05-.17-.17-.26-.43-.11-1.19.17-2.3-.48-3.64l.56-.89c-.28-1.08-.69,1.2-1.17-.6-.37-1.27.5-.56.63-1.04-.41-.6-1.23-1.64-.84-2.9.18.38.11.7.21,1.06ZM173.11,165.56c.11.26.45.77.18.98-.56-.26-.31-.52-.18-.98ZM171.58,144.73c.15.2.07.51-.12.85-.03-.25-.01-.54.12-.85ZM177.84,86.57s0,.02,0,.03c-.3.54-.19.35,0-.03ZM178.34,85.41c0-.13-.05-.14-.11-.1.05.11-.03.38-.14.67.11-.06.21-.2.25-.58ZM178.81,217.61v-.26c.27.49.14.37,0,.26Z" fill="#fcd763"/><path d="M172.19,147.11c-.08.07-.17.09-.26.11.08.11.17.11.26-.11Z" fill="#fcd763"/><path d="M175.95,187.56v.04s.06.03.09.03l-.09-.07Z" fill="#fcd763"/><path d="M176.72,104.79c-.11.24-.21.36-.3.44.09.03.2-.06.3-.44Z" fill="#fcd763"/><path d="M179.94,78.98l-.2.78c.12-.37.22-.48.33-.65-.07,0-.21.11-.13-.13Z" fill="#fcd763"/><path d="M183.82,72.98c0-.12.08-.23.09-.35h-.12c-.16.46-.18.82.03.35Z" fill="#fcd763"/><path d="M181.09,78.57c.25.01.33-.49.46-1.03l-.03.09c-.26-.26-.35.34-.43.94Z" fill="#fcd763"/><path d="M181.58,77.42c.04-.17.09-.33.16-.49-.1-.1-.09.19-.16.49Z" fill="#fcd763"/><path d="M178.64,83.85c.14-.23-.27-.26-.13-.37-.23-.38-.14,1.81.13.37Z" fill="#fcd763"/><polygon points="181.97 78.39 181.63 78.49 181.76 78.86 181.97 78.39" fill="#fcd763"/><path d="M180.42,82.51l.36-.82c-.05,0-.05-.12-.03-.26-.18.52-.42,1.07-.33,1.08Z" fill="#fcd763"/><path d="M180.75,81.43c.09-.27.17-.53.17-.7-.04.15-.14.47-.17.7Z" fill="#fcd763"/><polygon points="181.69 79.57 181.55 79.8 181.34 80.4 181.69 79.57" fill="#fcd763"/><path d="M177.73,91.69l-.14.97c.1.13.24-.11.28-.47-.03-.25.01-.61-.14-.49Z" fill="#fcd763"/><path d="M179.42,89.11c-.14.23-.22.23-.37.34l.41.14-.04-.48Z" fill="#fcd763"/><path d="M178.82,91.87c.1.13.02,1.46.28.26-.1-.13.03-1.1-.28-.26Z" fill="#fcd763"/><polygon points="175.03 105.97 175.07 105.73 174.22 105.6 175.03 105.97" fill="#fcd763"/><path d="M175.17,118.99c.37-1.1-.54-.35-.13-1.33-.18-.3-.33.8-.49.5.14.72-.04,1.06.61.83Z" fill="#fcd763"/><path d="M174.55,118.16c-.02-.11-.05-.24-.09-.37.03.21.06.31.09.37Z" fill="#fcd763"/><polygon points="196.9 259.08 197.27 259.72 197.04 259.3 196.9 259.08" fill="#fcd763"/><path d="M197.64,260.3l.08.15.23.38c-.08-.14-.21-.37-.31-.54Z" fill="#fcd763"/><path d="M174.29,163.46l-.16-.05c-.16.12-.16.29-.17.64l.33-.59Z" fill="#fcd763"/><polygon points="174.51 173.36 174.51 173.19 173.97 173.57 174.51 173.36" fill="#fcd763"/><path d="M176.09,181.54c-.02-.34-.19-.72-.2-1.06.19.72-.47,1.24.2,1.06Z" fill="#fcd763"/><path d="M198.85,46.26c.05-.13.07-.2.09-.24-.19.51-.08.23-.09.24Z" fill="#fcd763"/><polygon points="197.22 51.32 197.23 51.22 197.05 51.99 197.22 51.32" fill="#fcd763"/><path d="M195.78,56.08c.28-.41.47-1.74.79-2.57l.07-.13.03-.41c-.32,1.03-.63,2.39-.88,3.11Z" fill="#fcd763"/><path d="M194.64,58.52c.12-.14-.11.56.21-.58-.03.05-.04.07-.05.1-.03.1-.08.24-.16.48Z" fill="#fcd763"/><path d="M194.8,58.04c.16-.5-.16.31,0,0h0Z" fill="#fcd763"/><path d="M194.13,60.37l.13-.68c-.09.13-.28.71-.25.49-.17.69-.07.56.12.19Z" fill="#fcd763"/><path d="M194.1,61.03l.07-.35c-.04.06-.07.14-.07.35Z" fill="#fcd763"/><path d="M194.32,59.94l-.15.75c.06-.09.13-.08.07-.34.05.08.03-.08.07-.4Z" fill="#fcd763"/><path d="M194.47,59.53c.15-.36.31-.84.19-.15.34-1.27.16-1.12-.19.15Z" fill="#fcd763"/><path d="M195.87,56.36l.18-.49.07-.44c-.03.22-.31.95-.25.93Z" fill="#fcd763"/><path d="M192.78,64.47c.04.05.21-.19.29-.22l.08-.51c-.11.24-.28.71-.37.73Z" fill="#fcd763"/><path d="M193.08,64.25l-.1.76c.19-.66.17-.79.1-.76Z" fill="#fcd763"/><polygon points="194.32 61.21 194.49 59.97 194.25 61.45 194.32 61.21" fill="#fcd763"/><polygon points="191.99 67.28 191.96 66.83 191.97 67.62 191.99 67.28" fill="#fcd763"/><path d="M191.5,69.15c-.04-.34-.34.38-.32.03-.13.51-.13.97-.12,1.39.05-.43.18-.87.45-1.42Z" fill="#fcd763"/><path d="M191.03,71.26c.02-.22.02-.44.02-.69-.03.23-.04.46-.02.69Z" fill="#fcd763"/><path d="M192.61,66.26c-.05.05-.18.14-.33.54l.25-.25c.02-.09.05-.19.08-.29Z" fill="#fcd763"/><path d="M192.54,66.54h0c-.09.32-.15.54-.18.63.02-.08.08-.27.18-.63Z" fill="#fcd763"/><path d="M192.63,66.18s-.01.05-.02.07c.02-.02.03-.04.02-.07Z" fill="#fcd763"/><path d="M193.66,63.11c-.04.45-.19,1.38.17.53-.02-.33-.23.15-.17-.53Z" fill="#fcd763"/><path d="M192.93,65.87l.24-.78s-.14.13-.13-.09l-.11.87Z" fill="#fcd763"/><polygon points="192.89 66.27 192.93 65.87 192.84 66.16 192.89 66.27" fill="#fcd763"/><path d="M191.55,69.95c0,.36-.08.73-.17,1.16.15-.44.28-.91.39-1.35-.04-.08-.1-.29-.22.19Z" fill="#fcd763"/><path d="M192.05,68.3s0,.05,0,.08c.03-.04.04-.08,0-.08Z" fill="#fcd763"/><polygon points="190.38 75.25 190.43 75.2 190.4 75.17 190.38 75.25" fill="#fcd763"/><path d="M191.83,69.7c.12-.33.13-.54.12-.75-.05.26-.11.53-.18.81.02.03.04.04.06-.07Z" fill="#fcd763"/><path d="M190.84,72.44c.09-.17.17-.36.26-.56-.11.16-.3.49-.26.56Z" fill="#fcd763"/><path d="M191.96,68.48v-.05c-.06.1-.04.09,0,.05Z" fill="#fcd763"/><path d="M191.96,68.48c-.02.18-.01.33,0,.47.04-.21.07-.4.09-.57-.02.04-.05.08-.08.1Z" fill="#fcd763"/><path d="M191.56,76.81c-.21-.1-.21-1.04.17-1.76,0-.79-.76-.43-1.3.15.09.04.17.06.11.86.18-.25.66-1.68.7-.98-.12,1.06-.26.83-.48,1.31.35-.38.12,1.4.57,1.25l.03-.94c.06,0,.1.34.2.1Z" fill="#fcd763"/><path d="M190.81,73.71l.05-.33c-.12.36-.26.6-.54,1.05-.03.55.02.68.08.73l.41-1.57v.12Z" fill="#fcd763"/><path d="M191.21,71.95c.14.29.06,1.08.39.66.2-.95-.02-.7.02-1.28-.31,1.53,0-.46-.39.61.04-.31.09-.58.15-.83-.09.27-.19.53-.29.77,0-.01.01-.02.02-.03h0s0,0,0,0c.04-.06.06-.08.03,0,0,0,0,.02,0,.03.03.02.04.05.06.08-.15.43-.07.06-.06-.08,0,0-.02-.02-.03-.03h0s-.26,1.55-.26,1.55c.11-.32.2-.72.35-1.44Z" fill="#fcd763"/><path d="M193.96,64.53s-.04.04-.05.04c0,.1,0,.14.05-.04Z" fill="#fcd763"/><path d="M193.72,65.13c0-.12-.04-.22.06-.58.12-.3.07.02.13.01,0-.23.08-.78-.17-.12v.11c-.2.6-.6,1.34-.6,1.22.19-.14.34-.28.58-.65Z" fill="#fcd763"/><path d="M192.53,68.6l-.22,1.28.32-.61h-.11c.21-.7.06-.57,0-.68Z" fill="#fcd763"/><polygon points="190.23 75.38 190.03 75.16 190.19 75.96 190.23 75.38" fill="#fcd763"/><polygon points="189.87 77.03 189.67 76.93 189.7 77.39 189.87 77.03" fill="#fcd763"/><path d="M187.08,171.95l.13.37c-.04-.18-.09-.29-.13-.37Z" fill="#fcd763"/><path d="M186.96,169.21l-.19-.06c.11.12.19.17.19.06Z" fill="#fcd763"/><path d="M183.28,118.15c-.39.53-.98,1.11-.56,1.07l.41-.14c-.03-.39.04-.69.15-.94Z" fill="#fcd763"/><path d="M184.31,146.69c.04-.05.09-.11.13-.16-.15-.14-.28-.26-.41-.38.08.16.18.35.27.54Z" fill="#fcd763"/><path d="M186.1,147.1l-.29.73c.1-.16.2-.4.29-.73Z" fill="#fcd763"/><path d="M188.48,186.88l.44.4c-.06-.69-.24-.37-.44-.4Z" fill="#fcd763"/><path d="M186.58,94.08c-.21.46-.33.83-.4,1.16.29-.55.64-.97.4-1.16Z" fill="#fcd763"/><path d="M182.53,171.11c.09.23.18.33.28.31-.09-.24-.18-.37-.28-.31Z" fill="#fcd763"/><path d="M185.95,96.61c.05-.08.08-.16.12-.24,0-.36.02-.71.12-1.13-.21.4-.39.87-.24,1.37Z" fill="#fcd763"/><path d="M195.95,240.8s0,.09,0,.13c.02,0,.01-.05,0-.13Z" fill="#fcd763"/><path d="M199.03,256.46c-.05-.15-.14-.39-.21-.62.04.11.1.29.21.62Z" fill="#fcd763"/><path d="M188.3,83.68c.05-.36-.02-.06,0,0h0Z" fill="#fcd763"/><path d="M189.7,82.16c.01.08.04.14.1.16-.06-.04-.09-.1-.1-.16Z" fill="#fcd763"/><path d="M187.53,100.44s0,.02,0,.03c.08-.1.07-.08,0-.03Z" fill="#fcd763"/><path d="M188.53,83.17c-.06.13-.12.27-.17.44.04-.07.09-.2.17-.44Z" fill="#fcd763"/><path d="M188.39,83.22c.04-.12.06-.21.09-.3-.04-.05-.07-.02-.09.3Z" fill="#fcd763"/><path d="M188.21,84.17c.04-.2.09-.39.14-.57-.03.07-.05.09-.06.07-.02.1-.04.25-.08.49Z" fill="#fcd763"/><path d="M190.08,212.16s0,.05-.02.08c.18.33.14.18.02-.08Z" fill="#fcd763"/><path d="M186.8,127.75s-.01-.03-.02-.04c0,.02-.01.04-.02.05h.04Z" fill="#fcd763"/><path d="M187.04,129.04c-.49-.57-.41-.88-.27-1.28l-1.22.35,1.49.93Z" fill="#fcd763"/><path d="M187.56,178.51l.31-.92c.69,1.04.53,1.83.99.95-1.32-.03-.33-3.46-1.64-3.5l.25-.61c0,.17.07.19.07.36.57-1.19-.99-.8-.88-2.29.07-.52.25-.89.42-.55l-.39-1.13c0-.34.24-.27.24.07l-.2-1.75h.04c-.23-.23-.56-.78-.71-1.05.18-.46.15.22.31.1l-.36-.96c.34-.41.7.38.67,1.05,1.31-.97-.36-.79.36-2.78l.2.91c.74-.62.44-1.32.89-2.38-.24.25-1.13,2.12-1.5,1.08.09-.3.13-.69-.16-1.25.48-.02.34-.57.29-1.27l.64.03c-.21-.74-.53-.68-.83-1.11.04-.84.52-1.03.93-1.23.09-1.34-.78.95-.92-.64.23-1.12-.04-1.9-.43-3.23.21-.78.39.13.57-.15l-.52-.69c.01-.17.17-.12.25-.09-.2-.58-.64-.04-.82-.96-.71-.24,1.01-1.89.19-3.03.18-.28.39.13.64.05-.55-1.56-.39-1.34-1.08-2.62l.43-1.09c-.49.8-1.04-.23-1.5-1.14-.24.28-.44.53-.54.69l-.32-1.44c.11-.17.32-.02.59.21-.05-.1-.1-.19-.15-.27.24-.51.61-.24.96.13l-.4.51c.38.36.81.69,1.18.62-.07-.09-.13-.27-.17-.47.1.09.2.15.26.11.07-.05-.07-.2-.23-.44l.71-.32-.28-.08.47-1.87c-.68-1.35-1.77-2.54-1.96-4.69.5.54.84.14,1.45.18-.68.56.22,1.66.09,2.75.07-.57.37-.44.47-.29-.19-.66-.39-1.32-.55-1.98.5.06.39-.41.61-.91-1,.36-.61-1.49-.88-2.3.33-.04.66.17.55,1.14.78-1.05-1.11-1.43-.44-2.47,0,.24-.06.37.11.47-.27-.57,0-1.92.28-1.59v.24c.08-.79.12-1.99.04-3.03-.06-1.04-.24-1.92-.64-2.06.11,0,.97.26,1.13.37l-2.56-2.99c.68.29,2.39-.56,2.71.77.12-.37.26-.83.06-1.64-.11.25-1.04.58-1.08.22.82-.91.45-.64,1.17-1.79-.17.37-1.22-.13-1.15-.73.15.11,1.06.02,1.16.25l-.97-1.59c.17.39.88.13,1.2-.18-.22.14.12-1.3.04-1.71l-.29.62c.29-1.69-1.32-1.8-1.12-3.5.19.22,1.26.62,1.45-.23-.5-.44-2.36-1.97-2.61-3.52l.32-.26-.2-1.19c.66.79,2.11,2.96,2.68,4.12.28-.62.36-.15.4-1.1.3-.31.38.56.38.84l.33-2.21c-.61.04-.44-1.76-.94-1.72.13.83.25,1.65.41,2.47-.62.04-1.59-1.56-1.31-3.13.27-.38,1.01.41,1.22.39-.18-.22-.24-1.53-.09-1.66l.25.7c.3-.85-.63-1.51.02-2.51.07-.36.83-1,.5-1.1-.7.52-2.73.41-3.17-.04.06-.12.83-1.85,1.2-2.23.57-.54,1.09,1.04,1.58.58-.15-.04-.31-.39-.35-.54.18-.37.45.21.48-.62-.54-.21.25-1.68-.43-.45-.06-.83.22-.85.31-1.8-.39.26-1.1-1.01-1.14-1.84.13.07.33-.09.43-.17.27-1.66.6-2.52.84-4.07.15-.12.4-.85.58-.5-.06-.24-.2-.47-.15-.94.57-.86-.08,1.07.54.45-.29-.1-.24-1.29-.32-2-.48.14-.32,1.56-.23,2.27-.63-.09-1.11-1.37-1.13-3.03.06-1.31.48-.5.43-.73.47-2.4-.68-2.22.11-4.15.51-.73.72.08,1.02-.05-.04,1.07-.51,1.57-.62,2.28l.33-.84c.07.35.04,1.06-.12,1.43.43-.61.76-4.06,1.35-5.87-.06-.35-.08-.94-.26-.7l-.05.6c-.37.49-.18-1.17-.44-.45-.06-.82-.17-1.76.21-2.84l.41-.14c-.11,0-.37.68-.32,1.01-.07-.49.83-1.6.46-2.2l-.41.73c-.02-.82-.18-1.87.14-2.82-.44.38,0,.23-.56.85.64-.51-.58,2.5.18,1.63-.64.62-.47,1.2-1.11,2.05.13,0,.31-.29.07.52.03.04.06.14.07.2,0,.02-.01.03-.02.05l.02-.04s.02.04,0-.02c.1-.19.19-.33.28-.39.2.46-.05,1.77.02,2.24-.15.48-.11-.23-.3.01l.11.7c-.3.02-.74,1.22-.68.03l-.22,1.04c-.29.58-.53,1.41-.5,1.95-.17.48.1,1.29-.06.83l-.1,1.67h-.08c-.33,1.61-.02,3.41-.95,5.17-.01.56,0,1.13-.23,2.03l-.33.14c0,.71-.63,2.07-.35,2.41-.95.65-.71,3.38-1.03,4.6l.42.1c-.13.85-.11,1.68-.07,2.76l.39-.02c.21.94-.55,2.31-.69,3.76-.14-.11-.05-.48.07-.72-1.12,1.63.25,3.7-.56,5.2.11.4.03.68-.1.95,0-.04,0-.07-.01-.1,0,.04-.02.1-.02.16-.09.17-.19.34-.27.52.12-.16.21-.3.26-.44-.02.3-.01.76.05,1.22l-.46.15s0,.07,0,.1c-.21.43.18.37.53.16.05.23.12.44.21.61-.75.3.13,1.19-.68,1.62.33.33.11,2.27.89,2.57-.11,0-.16.14-.15-.11-.12.49-.25.99-.05,1.45l-.59.17.71,1.14c-.4.64-.62.9-1.03.22.58,1.63.17,1.31.77,2.69l-.38-.09c-.02.48.44,1.28.11,1.56-.78,1.05-.33,5.34-1.13,8.1,1.17-.51-.57,1.28.32,1.41-.27.15-.44.54-.66.08.24,1.43-.47,2.13.27,3.12-.28.16-.4-.31-.56-.17.06.12.23.46.06.6-.17.14-.23-.21-.34-.44.02,1.45.87,1.61,1.66,1.73-.39.73-.34,1.1.17,1.63-.26.25-.54.68-.62-.22-.05.51-.43,3.09.21,3.15-.17.16-.04.71.03.84-.03,1.14-.08,1.24,0,2.35l.1-.31c.78.44.18.92.29,1.82l-.08-.02c-.53,2.07.28.88-.33,2.93l.48-.12c1.03.17-.59,1.81-.17,2.98l.26-.43c.37.63-1.33,1.84-1.44,2.49-.08.14-.15-.22-.22-.41-.54,1.72.63.2.83,1.46-.33.24-.87-.27-.9.58-.25.44,1.19,2.43.59,3.62.25-.27.49-.53.71.05.11.89-.84,2.48.02,3.25-.06.12-.13.16-.19.17.25.68.48,2.21.94,2.6-1.56.73,1.03,4.21-.41,4.3l.26,2.1-.15-.04c.02,1.36.41,1.81.79,2.25-.07.32-.22.1-.3.08-.11,1.99-.05,2.19.83,3.77l-.44.21c.31.42-.4,2.91.34,4.79-.05-.01-.14-.04-.22-.19.72,2.11-.53,5.32,1.12,5.93l.56,1.38c-.12-1.86.7.19.86-.6.18.71-.23,1.93-.42,1.05l.06-.15c-.83-.23,0,2.33-.52,2.35.59,3.61.7,7.21,1.31,10.59l.48-.48.17,1.18c-.07.33-.35.48-.47-.36-.22.49.51,1.37.62,1.37.08,1.68-.73-.54-.66-.03l.16.68.03-.16c.32.52.54.53.72,1.54.02.65-.25.38-.22.64-.04,0-.04.09.06.39l.25,1.49.28-.66c.32.62.25,1.39.56.63-.25.56-.04,1.95.22,3.28.28,1.33.61,2.59.58,2.92.46.86.64,1.77.85,2.89.01-.29.35-.54.51.44-.84-.19.07,1.83-.26,2.71.18-.77.74,2.71.95,1.52.13.81-.25.11-.26.75.71,1.85.92,4.22,1.63,6.54.08.02.09-.4.33.08v1.32c.16.45.5.33.5,1.23.02-.13.06-.33.16-.03.45,2.33,1.24,4.63,1.94,6.95.75,2.31,1.42,4.65,2.13,6.95-.17-.63-.02-.22.14.25-.09-.31.05,0,.06-.08.19.64.37,1.29.58,1.93.17.33.73,2.03.82,2.22l-.21-.6c.28.8-.3-1.15-.19-1.05-.35-.89-.52-2.45-1.06-3.91-.06-.34.12.27.1.08-.15-.37-.3-.82-.49-1.68l.04.09c-.61-2.4-.82-3.45-1.34-6.18l-.09.24c-.12-.59-.1-.72-.13-1-.37-.61.37,1.64,0,1.09.1-.85-.99-4.1-.71-4.72-.19-.9-.14.31-.33-.58l.06-.27-.19-.19c-.11-.59-.03-.93.07-.97.02.15.11.4.15.55-.02-.8-.5-2.14-.51-2.42l.11.88c-.62-2.43-1.05-5.47-1.8-7.78l-.08.21c-.57-1.77-.15-1.48-.64-3.45l.04.07c-.2-.37-.38-.89-.46-1.44.24.47.13-1.01.41-.38-.6-1.92-.37-.94-1.11-2.14l.17-.35c-.29-.4-.4-.42-.65-1.41.35.78.24-.71.67.16.14-2.19-1.06-3.01-.44-4.12-.84-.84-.09,1.89-.32,1.37-.14.49-.64-.7-.69-1.37-.1-.67.7-1.3.42-2.98.02.17.08.17.1.34.09-.66-.46-1.19-.26-2.02-.51-.36-.12-1.01-.71-1.04l.36,1.53c-.27-.85-1.08-1.57-.97-3.07.14.09.36.5.49.78.11-.45-.24-.8-.12-1.27.61.03.4,1.86.98,2.73.18-.49-.67-1.71.02-1.34-.9-.55-.13-1.68-.91-2.73l.37.02c-.08-.17-.31-.52-.35-.86l.55.53c-.53-.86.1-1.84-.22-2.7.23,1.86-.4.49-.56,1.31-.8-2.23.81-1.47.32-4.01.09.34-.07,1.34-.31.82.02-.5.09-1.17.25-1.5-.29-1.69-.37.32-.69-.38.4-.65-.3-.81-.55-1.54l.4-.06c.02-1.98-.9-.41-.79-2.2l.64.67-.24-.9.48.13c-.45-.95-.39-1.27-.36-2.26-.27.26-.76-.04-.87-.9.18-.62.43.28.24-.93.29.25.65.51.33,1.09.14.04.29.24.43.28.22-.67-.1-1.6-.15-2.04,0,.17,0,.38-.05.49l-.78-1.71c.14-.3.28-.09.43.12-.08-.35-.3-.58-.38-1.11.36.1.72.03.94.76l-.53-1.65c.14-.13.35-.91.49-.7.13-.96-.88-2.23-.71-3.5-.08-.06-.15-.18-.23-.44-.03-1.17.36-2.25-.24-3.59l.61-.84c-.22-1.07-.76,1.13-1.13-.66-.3-1.26.53-.52.69-.98-.38-.61-1.14-1.67-.68-2.88.15.38.08.69.15,1.05ZM186.62,165.13c.11.26.43.76.16.96-.56-.27-.3-.51-.16-.96ZM185.26,144.72c.16.2.07.49-.11.83-.04-.25-.02-.52.11-.83ZM187.79,87.59s0,.02.01.03c-.24.55-.15.36-.01-.03ZM188.16,86.42c-.02-.13-.07-.13-.12-.08.06.1.02.37-.06.67.1-.07.19-.22.19-.58ZM188.4,216.32l.04-.25c.2.51.08.38-.04.25Z" fill="#fcd763"/><path d="M185.89,147.05c-.08.07-.17.09-.26.11.08.1.17.11.26-.11Z" fill="#fcd763"/><path d="M188.39,186.81v.04s.05.03.08.03l-.08-.07Z" fill="#fcd763"/><path d="M188.49,105.41c-.09.24-.17.37-.26.45.1.03.19-.08.26-.45Z" fill="#fcd763"/><path d="M188.96,80.01l-.1.77c.07-.37.16-.49.25-.67-.07,0-.2.13-.15-.11Z" fill="#fcd763"/><path d="M192.01,73.74c0-.12.05-.24.04-.35h-.12c-.09.48-.07.83.08.35Z" fill="#fcd763"/><path d="M190.05,79.49c.25-.02.26-.51.33-1.05l-.02.09c-.29-.22-.3.37-.31.96Z" fill="#fcd763"/><path d="M190.39,78.31c.02-.17.05-.34.1-.49-.11-.09-.07.19-.1.49Z" fill="#fcd763"/><path d="M188.28,84.87c.12-.24-.3-.22-.17-.34-.28-.34.07,1.76.17.34Z" fill="#fcd763"/><polygon points="190.9 79.2 190.58 79.34 190.75 79.68 190.9 79.2" fill="#fcd763"/><path d="M189.88,83.38l.24-.84c-.05,0-.06-.11-.06-.25-.12.52-.28,1.09-.18,1.09Z" fill="#fcd763"/><path d="M190.06,82.29c.06-.27.1-.53.08-.7-.03.15-.08.47-.08.7Z" fill="#fcd763"/><polygon points="190.77 80.38 190.66 80.62 190.52 81.22 190.77 80.38" fill="#fcd763"/><path d="M188.25,92.57l-.04.95c.11.11.23-.13.23-.49-.05-.24-.05-.59-.19-.47Z" fill="#fcd763"/><path d="M189.65,89.89c-.11.24-.19.25-.33.37l.43.1-.1-.47Z" fill="#fcd763"/><path d="M189.36,92.64c.11.11.17,1.41.3.22-.11-.11-.08-1.07-.3-.22Z" fill="#fcd763"/><polygon points="186.92 106.7 186.94 106.46 186.08 106.4 186.92 106.7" fill="#fcd763"/><path d="M187.95,119.4c.3-1.09-.56-.31-.2-1.3-.2-.28-.29.8-.46.52.18.69.03,1.03.66.78Z" fill="#fcd763"/><path d="M187.29,118.63c-.03-.11-.06-.23-.11-.36.04.2.08.3.11.36Z" fill="#fcd763"/><polygon points="199.89 258.97 200.14 259.65 199.99 259.21 199.89 258.97" fill="#fcd763"/><path d="M200.39,260.27l.05.16.15.41c-.05-.15-.14-.4-.2-.57Z" fill="#fcd763"/><path d="M187.85,163.1l-.16-.05c-.16.12-.17.28-.19.62l.34-.57Z" fill="#fcd763"/><polygon points="187.74 172.82 187.75 172.65 187.19 173 187.74 172.82" fill="#fcd763"/><path d="M188.92,180.91c0-.33-.15-.71-.15-1.05.15.72-.54,1.19.15,1.05Z" fill="#fcd763"/><path d="M212.43,46.26c-.05-.13-.09-.21-.1-.24.21.51.1.23.1.24Z" fill="#fce284"/><polygon points="214.63 51.24 214.58 51.16 214.94 51.87 214.63 51.24" fill="#fce284"/><path d="M216.6,55.92c-.04-.51-.71-1.7-1.03-2.55l-.03-.15-.25-.34c.45,1,1.06,2.29,1.31,3.03Z" fill="#fce284"/><path d="M217.23,58.6c.01-.19.27.52-.2-.6.01.06.02.08.02.11.04.1.09.24.18.49Z" fill="#fce284"/><path d="M217.06,58.11c-.19-.5.07.35,0,0h0Z" fill="#fce284"/><path d="M217.95,60.41l-.3-.64c0,.16.2.75.09.55.27.67.27.51.21.09Z" fill="#fce284"/><path d="M218.32,60.98l-.15-.33c0,.07.03.16.15.33Z" fill="#fce284"/><path d="M217.84,59.94l.32.7c0-.11.06-.15-.14-.32.08.03-.03-.09-.18-.38Z" fill="#fce284"/><path d="M217.73,59.52c-.09-.39-.26-.87.06-.24-.52-1.24-.56-1.01-.06.24Z" fill="#fce284"/><path d="M216.85,56.09l-.16-.51-.22-.4c.11.2.35.96.39.91Z" fill="#fce284"/><path d="M219.29,64.59c.07.02.06-.28.11-.35l-.24-.46c.06.27.19.75.13.82Z" fill="#fce284"/><path d="M219.4,64.23l.35.7c-.22-.66-.31-.76-.35-.7Z" fill="#fce284"/><polygon points="218.6 61 218 59.87 218.69 61.23 218.6 61" fill="#fce284"/><polygon points="220.21 67.41 219.93 67.04 220.39 67.71 220.21 67.41" fill="#fce284"/><path d="M220.84,69.27c-.22-.26-.07.5-.25.2.18.5.43.89.66,1.25-.19-.39-.32-.84-.41-1.45Z" fill="#fce284"/><path d="M221.6,71.33c-.09-.2-.22-.39-.34-.61.1.21.2.41.34.61Z" fill="#fce284"/><path d="M220.15,66.2c-.02.07-.07.22.03.64l.07-.35c-.03-.09-.06-.19-.1-.29Z" fill="#fce284"/><path d="M220.25,66.47h0c.1.33.17.55.2.64-.03-.08-.09-.27-.2-.64Z" fill="#fce284"/><path d="M220.13,66.12s.02.05.02.07c0-.03,0-.05-.02-.07Z" fill="#fce284"/><path d="M219.2,62.96c.24.4.67,1.25.46.34-.21-.27-.1.25-.46-.34Z" fill="#fce284"/><path d="M220.2,65.69l-.24-.79s-.05.2-.16,0l.4.8Z" fill="#fce284"/><polygon points="220.39 66.05 220.2 65.69 220.29 65.98 220.39 66.05" fill="#fce284"/><path d="M221.34,69.92c.19.31.33.67.47,1.09-.1-.47-.24-.93-.4-1.37-.08-.04-.25-.2-.08.28Z" fill="#fce284"/><path d="M220.83,68.24s.02.05.04.07c0-.05,0-.09-.04-.07Z" fill="#fce284"/><polygon points="223.11 75.14 223.13 75.06 223.09 75.06 223.11 75.14" fill="#fce284"/><path d="M221.43,69.55c-.08-.35-.19-.53-.31-.7.1.24.21.51.31.79.04.02.05.02,0-.09Z" fill="#fce284"/><path d="M222.04,72.45c-.01-.19-.04-.4-.07-.63,0,.19,0,.58.07.63Z" fill="#fce284"/><path d="M220.85,68.44l-.02-.05c0,.12.01.1.02.05Z" fill="#fce284"/><path d="M220.85,68.44c.08.16.17.28.26.4-.08-.2-.17-.38-.25-.54,0,.05,0,.1-.01.13Z" fill="#fce284"/><path d="M224.94,75.91c-.23.01-.72-.81-.77-1.65-.41-.7-.87.01-1.04.8.09,0,.17-.03.55.7.03-.31-.31-1.81.09-1.22.45.99.21.86.27,1.4.12-.51.81,1.18,1.12.83-.14-.29-.29-.57-.44-.86.05-.04.26.26.23-.01Z" fill="#fce284"/><path d="M222.68,73.57l-.12-.31c.08.38.09.66.08,1.2.26.5.37.58.45.6l-.47-1.58.06.1Z" fill="#fce284"/><path d="M222.1,71.83c.28.18.61.91.68.37-.32-.93-.38-.6-.65-1.13.54,1.5-.25-.4,0,.74-.13-.29-.22-.55-.31-.8.06.28.11.56.16.82,0-.02,0-.03,0-.04h0s0,0,0,0c0-.07.01-.1.02-.02,0,0,.01.02.01.03.03,0,.06.02.1.04.1.45-.03.09-.1-.04-.01,0-.02-.01-.04,0h0s.59,1.48.59,1.48c-.07-.33-.21-.73-.45-1.44Z" fill="#fce284"/><path d="M220.29,63.96c0,.05,0,.05-.02.06.06.09.08.12.02-.06Z" fill="#fce284"/><path d="M220.44,64.61c-.06-.1-.16-.17-.28-.52-.08-.32.07-.03.11-.06-.13-.19-.4-.7-.21,0l.06.1c.19.62.26,1.47.2,1.38.08-.23.12-.43.11-.88Z" fill="#fce284"/><path d="M221.39,68.23l.54,1.22-.07-.69-.08.07c-.22-.72-.28-.53-.38-.59Z" fill="#fce284"/><polygon points="223.05 75.32 222.77 75.23 223.32 75.85 223.05 75.32" fill="#fce284"/><polygon points="223.59 76.95 223.36 76.96 223.61 77.36 223.59 76.95" fill="#fce284"/><path d="M238.3,172.94l.07.4c-.01-.19-.04-.31-.07-.4Z" fill="#fce284"/><path d="M238.62,170.1l-.18-.09c.09.14.16.2.18.09Z" fill="#fce284"/><path d="M232.41,118.1c-.26.61-.71,1.3-.31,1.18l.37-.23c-.12-.38-.12-.69-.06-.95Z" fill="#fce284"/><path d="M237.08,146.74c.04-.05.08-.11.13-.17-.15-.14-.29-.26-.42-.38.09.17.19.35.29.55Z" fill="#fce284"/><path d="M238.88,147.11l-.26.76c.09-.17.18-.42.26-.76Z" fill="#fce284"/><path d="M236.61,188.47l.32.52c.13-.71-.13-.43-.32-.52Z" fill="#fce284"/><path d="M228.16,93.93c-.01.51.02.9.08,1.23.05-.62.22-1.15-.08-1.23Z" fill="#fce284"/><path d="M233.93,171.42c.06.24.13.35.23.35-.05-.25-.12-.39-.23-.35Z" fill="#fce284"/><path d="M228.55,96.54c.01-.09.01-.18.02-.27-.13-.33-.26-.67-.33-1.1-.04.46-.02.96.31,1.37Z" fill="#fce284"/><path d="M219.48,242.17l-.07.11s.04-.03.07-.11Z" fill="#fce284"/><path d="M211.56,256.53c.07-.15.17-.39.27-.61-.05.11-.13.29-.27.61Z" fill="#fce284"/><path d="M225.37,83.64c-.11-.35-.04-.05,0,0h0Z" fill="#fce284"/><path d="M225.9,81.62c.05.07.11.11.17.1-.07,0-.12-.05-.17-.1Z" fill="#fce284"/><path d="M231.39,99.61s0,.02,0,.03c.04-.12.03-.1,0-.03Z" fill="#fce284"/><path d="M225.34,83.07c0,.14.02.3.05.47,0-.08-.01-.22-.05-.47Z" fill="#fce284"/><path d="M225.24,83.18c-.02-.12-.04-.22-.06-.31-.06-.03-.07.02.06.31Z" fill="#fce284"/><path d="M225.51,84.12c-.06-.2-.09-.39-.12-.58,0,.07,0,.11-.02.09.03.1.07.25.14.49Z" fill="#fce284"/><path d="M229.41,213.72s-.03.05-.05.07c.03.39.05.23.05-.07Z" fill="#fce284"/><path d="M237.74,127.05s-.02-.02-.02-.04c0,.02,0,.04,0,.06l.03-.02Z" fill="#fce284"/><path d="M238.19,128.34c-.58-.51-.55-.84-.49-1.27l-1.14.56,1.63.72Z" fill="#fce284"/><path d="M237.64,179.75l.5-.88c.45,1.19.12,1.98.77,1.17-.63-.15-.54-1.05-.44-1.96.09-.91.14-1.82-.51-1.95l.34-.58c-.03.17.04.21.01.38.75-1.13-.85-.98-.51-2.5.16-.52.38-.88.5-.5l-.21-1.22c.06-.34.28-.24.22.1l.08-1.83.04.02c-.19-.28-.44-.89-.57-1.19.22-.45.13.24.3.14l-.26-1.03c.37-.39.66.47.56,1.17,1.39-.84-.28-.86.63-2.84l.11.97c.8-.56.57-1.33,1.12-2.38-.27.25-1.34,2.09-1.6.97.12-.3.19-.71-.04-1.31.48.02.4-.56.42-1.29l.63.08c-.13-.79-.46-.75-.72-1.22.12-.87.62-1.03,1.05-1.21.17-1.39-.83.93-.88-.73.27-1.15.03-1.98-.33-3.38.24-.81.39.15.58-.14l-.5-.73c.02-.18.17-.12.25-.09-.19-.61-.64-.06-.79-1.02-.7-.26,1.07-1.94.29-3.13.19-.29.39.14.64.05-.49-1.62-.36-1.39-1.09-2.71l.39-1.13c-.46.84-1.05-.22-1.54-1.13-.22.3-.42.55-.51.72l-.37-1.46c.1-.18.32-.04.59.2-.05-.1-.11-.19-.16-.27.22-.53.6-.27.96.1l-.38.54c.4.36.83.69,1.21.61-.08-.1-.14-.28-.18-.48.11.09.2.15.27.11.07-.05-.08-.2-.25-.44l.7-.35-.28-.08.4-1.95c-.78-1.37-1.77-2.54-2.22-4.71.55.52.85.08,1.46.07-.6.63.39,1.69.27,2.84.05-.6.35-.48.45-.33-.21-.67-.42-1.34-.67-2.01.5.02.35-.45.52-.99-.96.45-.76-1.48-1.11-2.29.33-.07.68.11.66,1.12.66-1.16-1.25-1.37-.69-2.5.02.25-.02.38.16.47-.33-.56-.19-1.98.11-1.67l.02.25c0-.82-.08-2.07-.28-3.13-.23-1.06-.56-1.93-.98-2.01.1-.03,1,.12,1.18.21l-3.03-2.63c.72.18,2.26-.97,2.8.34.06-.4.12-.89-.22-1.68-.07.28-.93.77-1.03.41.66-1.07.34-.73.85-2.03-.1.41-1.22.1-1.25-.53.17.08,1.05-.18,1.19.04-.41-.48-.8-.96-1.24-1.43.24.36.89-.04,1.14-.43-.18.19-.19-1.35-.35-1.75l-.14.69c-.11-1.78-1.7-1.53-1.89-3.27.24.18,1.37.33,1.36-.57-.59-.33-2.73-1.42-3.35-2.87l.24-.34-.53-1.11c.44.3,1.15.89,1.86,1.54.69.65,1.37,1.36,1.77,1.88.13-.69.32-.24.14-1.22.22-.39.5.47.56.76-.07-.77-.1-1.55-.21-2.32-.57.2-.93-1.64-1.4-1.47l1.07,2.37c-.56.19-1.94-1.16-2.13-2.78.16-.45,1.09.13,1.28.06-.24-.18-.67-1.46-.56-1.63l.44.63c.04-.94-1.04-1.32-.7-2.5-.03-.38.51-1.25.16-1.25-.52.73-2.49,1.22-3.04.92.03-.14.28-2.06.48-2.54.36-.71,1.37.67,1.69.07-.16,0-.42-.29-.51-.42.04-.41.5.07.24-.76-.58-.03-.34-1.72-.56-.3-.34-.79-.08-.9-.33-1.86-.28.38-1.38-.61-1.7-1.39.15.02.28-.21.34-.31-.3-1.69-.29-2.65-.69-4.2.09-.17.04-.96.34-.69-.15-.2-.37-.37-.51-.84.19-1.04.35,1.05.68.22-.31.01-.72-1.14-1.08-1.78-.38.32.32,1.6.68,2.24-.62.16-1.56-.87-2.23-2.43-.45-1.25.25-.66.11-.86-.51-2.45-1.54-1.78-1.65-3.9.14-.89.69-.23.9-.48.43,1.01.23,1.67.44,2.37l-.07-.92c.21.3.5.97.51,1.38.14-.75-1.09-4.08-1.35-6.02-.21-.3-.48-.83-.54-.52l.21.57c-.12.62-.68-1-.6-.21-.41-.73-.97-1.52-1.15-2.66l.29-.32c-.1.06,0,.79.21,1.06-.29-.41-.04-1.84-.65-2.19v.85c-.42-.73-1.06-1.58-1.24-2.6-.2.55.11.21-.09,1.03.31-.76.69,2.51.94,1.37-.26.86.16,1.3.01,2.35.11-.07.14-.4.31.44.05.03.12.1.16.15,0,.03,0,.04,0,.06v-.05s.04.03,0-.02c0-.21.02-.39.06-.47.41.32.76,1.63,1.02,2.03.07.51-.2-.16-.26.15l.4.6c-.26.15-.14,1.44-.6.33l.25,1.04c0,.66.14,1.52.4,2,.06.51.65,1.14.31.78.2.53.42,1.05.6,1.58l-.07.04c.32,1.63,1.3,3.19,1.13,5.19.2.52.45,1.06.55,1.99l-.26.25c.24.68.1,2.18.48,2.41-.68.94.47,3.44.56,4.71l.43-.04c.14.86.37,1.65.72,2.68l.37-.14c.47.86.12,2.41.4,3.85-.17-.07-.19-.45-.14-.72-.29.94.01,1.82.35,2.68.32.86.65,1.71.43,2.55.2.37.19.66.12.95,0-.04-.02-.07-.03-.09,0,.04,0,.1.02.16-.05.18-.1.37-.14.58.08-.18.14-.35.16-.49.05.3.16.75.32,1.19l-.41.25s.02.06.03.1c-.1.46.25.33.55.04.1.22.22.41.34.56-.66.45.4,1.15-.3,1.74.43.25.55,2.23,1.36,2.38-.1.03-.14.17-.17-.08-.04.52-.08,1.03.19,1.46l-.56.28.89,1.02c-.29.71-.47,1.01-.98.39.84,1.53.38,1.27,1.21,2.58l-.39-.03c.06.49.65,1.22.37,1.55-.63,1.15.23,5.44-.27,8.28,1.12-.6-.44,1.33.46,1.4-.26.18-.41.57-.66.13.3,1.42-.39,2.17.38,3.13-.27.17-.41-.29-.57-.14.06.11.25.45.09.6-.16.15-.23-.2-.36-.43.07,1.46.92,1.59,1.72,1.68-.36.75-.3,1.12.23,1.65-.25.26-.52.7-.63-.21-.03.52-.31,3.13.33,3.19-.16.16-.06.72.01.85-.06,1.15-.12,1.25-.08,2.39l.11-.31c.76.46.15.94.23,1.86l-.08-.03c-.6,2.08.25.91-.43,2.96l.48-.1c1.01.23-.62,1.81-.3,3.02l.3-.42c.31.67-1.5,1.76-1.67,2.41-.1.14-.13-.23-.18-.43-.7,1.68.61.25.68,1.54-.35.22-.84-.35-.95.5-.29.41.95,2.56.24,3.69.27-.24.54-.48.7.13.04.92-1.18,2.37-.44,3.26-.08.11-.15.15-.22.15.14.71.14,2.29.53,2.75-.83.24-.73,1.33-.62,2.36.1,1.02.19,1.96-.53,1.86l-.19,2.14-.14-.07c-.26,1.35.02,1.87.3,2.4-.14.3-.24.05-.31.02-.53,1.95-.49,2.15-.07,3.92l-.48.1c.19.49-1.15,2.74-.94,4.77-.05-.03-.13-.08-.16-.25.1,1.14-.47,2.38-.84,3.47-.38,1.09-.58,2.04.11,2.6l.1,1.51c.48-1.83.6.42,1-.29-.06.75-.83,1.79-.73.88l.1-.12c-.7-.49-.77,2.24-1.29,2.07-.39,1.82-.88,3.59-1.37,5.32-.52,1.73-1.07,3.42-1.5,5.1l.63-.24-.33,1.17c-.2.28-.51.3-.28-.53-.41.36-.1,1.48,0,1.53-.66,1.58-.43-.81-.58-.31-.04.23-.09.46-.14.69l.1-.14c.06.61.26.72-.05,1.72-.28.6-.4.23-.49.48-.04-.01-.08.07-.12.38l-.45,1.46.55-.47c0,.71-.41,1.38.21.83-.91.81-1.89,5.4-2.28,5.94-.04.99-.31,1.89-.72,2.98.16-.25.58-.29.2.65-.61-.61-.92,1.63-1.68,2.21.56-.57-.82,2.74-.01,1.82-.33.77-.26-.04-.62.5-.45,1.96-1.63,4.08-2.41,6.42.05.06.31-.28.22.26l-.81,1.07c-.14.47.21.57-.33,1.31.1-.1.25-.24.15.08-1.01,2.19-1.93,4.49-2.86,6.79-.97,2.28-2,4.55-3.11,6.74.31-.59.13-.18-.07.28.14-.3.04.03.1-.02l-.93,1.84c-.12.36-.94,2-1.01,2.2l.28-.59c-.37.79.61-1.05.62-.9.4-.88,1.35-2.19,1.98-3.66.19-.3-.1.29.02.13.14-.38.35-.82.81-1.61l-.03.1c1.13-2.28,1.73-3.2,3.07-5.73l-.22.13c.28-.55.38-.64.54-.89.1-.73-.76,1.55-.7.87.61-.62,1.87-3.91,2.44-4.26.4-.86-.3.17.09-.69l.21-.18-.04-.28c.28-.56.54-.78.65-.77-.07.13-.15.4-.21.55.47-.68.91-2.08,1.07-2.31l-.45.8c.51-1.2,1.06-2.51,1.62-3.82.55-1.32,1.1-2.62,1.4-3.84l-.18.14c.47-1.86.67-1.38,1.33-3.37v.08c.03-.43.17-.98.39-1.51-.04.54.64-.83.55-.13.46-2.03.16-1.03.13-2.48l.32-.22c-.05-.51-.14-.58.14-1.58-.09.87.56-.52.5.47,1.24-1.91.56-3.24,1.62-3.96-.36-1.17-.94,1.7-.92,1.11-.36.38-.24-.95.03-1.58.22-.66,1.22-.87,1.75-2.56-.06.17,0,.19-.06.36.38-.58.15-1.3.69-1.99-.29-.56.34-1-.19-1.28-.1.53-.23,1.06-.34,1.58.15-.91-.29-1.93.43-3.29.08.14.12.62.12.94.29-.38.12-.85.42-1.24.54.28-.4,1.93-.26,2.99.39-.38.11-1.9.59-1.25-.59-.9.59-1.65.31-2.96l.33.17c0-.2-.06-.62.04-.95l.28.73c-.12-1.04.87-1.71.91-2.66-.53,1.88-.56.31-1.05,1.03.17-2.43,1.32-1.09,1.83-3.74-.04.37-.56,1.27-.6.68.2-.48.51-1.1.79-1.36.36-1.75-.46.17-.5-.62.61-.48.03-.89.06-1.68l.39.08c.74-1.91-.68-.7.04-2.41.13.29.26.58.38.87.03-.32.05-.64.07-.96l.41.29c-.12-1.09.04-1.38.38-2.35-.34.17-.71-.28-.54-1.16.37-.55.32.41.53-.84.2.33.46.71-.04,1.17.12.08.2.33.32.41.42-.59.42-1.61.51-2.07-.05.17-.12.37-.2.47l-.19-1.92c.22-.25.3,0,.37.24.03-.38-.1-.66-.03-1.21.32.2.68.24.67,1.03,0-.6,0-1.2-.04-1.8.17-.09.58-.82.67-.57.39-.93-.25-2.48.26-3.71-.06-.08-.1-.22-.1-.5.29-1.19.95-2.18.64-3.69l.77-.72c.01-1.14-.98.98-.97-.92-.03-1.35.63-.42.88-.86-.24-.7-.76-1.93-.05-3.08.07.42-.07.72-.08,1.1ZM238.72,165.84c.08.28.36.84.06,1.01-.53-.34-.25-.56-.06-1.01ZM237.96,144.68c.16.2.09.51-.08.86-.05-.25-.03-.54.08-.86ZM226.61,87.43s.01.02.02.02c.03.61.02.39-.02-.02ZM226.44,86.2c-.07-.11-.12-.09-.15-.02.1.06.18.33.23.64.06-.11.08-.28-.09-.62ZM226.06,216.83l.15-.21c-.05.55-.1.38-.15.21Z" fill="#fce284"/><path d="M238.67,147.06c-.08.08-.17.1-.26.12.08.1.18.11.26-.12Z" fill="#fce284"/><path d="M236.56,188.37v.04s.03.04.06.05l-.06-.1Z" fill="#fce284"/><path d="M234,104.13c0,.26-.04.42-.09.52.1,0,.16-.14.09-.52Z" fill="#fce284"/><path d="M224.22,80.05l.29.74c-.12-.36-.09-.51-.1-.71-.06.04-.11.21-.18-.02Z" fill="#fce284"/><path d="M223.72,72.97c-.07-.1-.08-.23-.15-.33l-.1.07c.17.46.37.76.25.26Z" fill="#fce284"/><path d="M224.92,79.06c.21-.13-.01-.58-.22-1.1l.03.09c-.36-.06-.09.48.19,1.01Z" fill="#fce284"/><path d="M224.66,77.83c-.06-.16-.12-.33-.15-.49-.14-.02.03.21.15.49Z" fill="#fce284"/><path d="M225.87,84.74c0-.27-.36-.06-.3-.24-.4-.19.82,1.58.3.24Z" fill="#fce284"/><polygon points="225.53 78.39 225.31 78.67 225.63 78.89 225.53 78.39" fill="#fce284"/><path d="M226.64,82.64l-.18-.87s-.11-.07-.17-.2c.15.53.27,1.12.36,1.07Z" fill="#fce284"/><path d="M226.28,81.57c-.08-.27-.17-.53-.26-.67.05.15.16.46.26.67Z" fill="#fce284"/><polygon points="225.98 79.52 226 79.79 226.17 80.39 225.98 79.52" fill="#fce284"/><path d="M229.11,91.86l.33.91c.15.06.16-.21.02-.55-.14-.2-.27-.54-.36-.37Z" fill="#fce284"/><path d="M229.3,88.77c0,.27-.07.31-.14.48l.43-.09-.29-.4Z" fill="#fce284"/><path d="M230.16,91.48c.14.06.71,1.28.37.09-.15-.06-.49-.98-.37-.09Z" fill="#fce284"/><polygon points="232.91 105.89 232.86 105.65 232.02 105.85 232.91 105.89" fill="#fce284"/><path d="M237.25,118.3c.04-1.18-.61-.19-.5-1.27-.26-.24-.1.88-.33.63.34.66.26,1.04.82.64Z" fill="#fce284"/><path d="M236.43,117.67c-.05-.11-.12-.22-.19-.33.09.19.15.28.19.33Z" fill="#fce284"/><polygon points="210.39 258.97 210.08 259.65 210.29 259.21 210.39 258.97" fill="#fce284"/><path d="M209.82,260.27l-.08.15-.18.41c.07-.15.18-.39.26-.56Z" fill="#fce284"/><path d="M240.14,163.84l-.15-.07c-.18.11-.2.28-.25.63l.4-.56Z" fill="#fce284"/><polygon points="238.82 173.94 238.85 173.77 238.25 174.03 238.82 173.94" fill="#fce284"/><path d="M238.46,182.49c.07-.34,0-.76.08-1.11-.01.77-.78,1.11-.08,1.11Z" fill="#fce284"/><path d="M208.12,46.27c-.03-.13-.05-.21-.06-.25.11.53.05.24.06.25Z" fill="#fce284"/><polygon points="209.42 51.42 209.38 51.33 209.62 52.08 209.42 51.42" fill="#fce284"/><path d="M210.57,56.25c.04-.49-.42-1.75-.59-2.62v-.15s-.2-.36-.2-.36c.27,1.04.65,2.38.78,3.13Z" fill="#fce284"/><path d="M210.76,58.93c.04-.18.18.54-.1-.61,0,.06,0,.08,0,.11.02.11.05.25.1.5Z" fill="#fce284"/><path d="M210.67,58.43c-.11-.51,0,.35,0,0h0Z" fill="#fce284"/><path d="M211.18,60.79l-.2-.66c-.02.15.08.76,0,.54.17.68.19.53.2.12Z" fill="#fce284"/><path d="M211.46,61.39l-.1-.34c0,.07,0,.16.1.34Z" fill="#fce284"/><path d="M211.15,60.32l.21.73c.02-.11.08-.13-.09-.33.07.05-.02-.09-.12-.39Z" fill="#fce284"/><path d="M211.09,59.89c-.03-.39-.11-.88.1-.23-.3-1.28-.38-1.06-.1.23Z" fill="#fce284"/><path d="M210.79,56.45l-.08-.51-.16-.42c.08.21.19.98.24.93Z" fill="#fce284"/><path d="M211.86,65.02c.06.03.11-.26.17-.33l-.16-.48c.02.26.07.76,0,.81Z" fill="#fce284"/><path d="M212.02,64.69l.23.72c-.11-.67-.18-.78-.23-.72Z" fill="#fce284"/><polygon points="211.73 61.45 211.31 60.27 211.78 61.68 211.73 61.45" fill="#fce284"/><polygon points="212.35 67.88 212.13 67.49 212.48 68.2 212.35 67.88" fill="#fce284"/><path d="M212.71,69.77c-.18-.29-.14.48-.28.16.11.51.29.93.46,1.3-.12-.41-.18-.86-.18-1.46Z" fill="#fce284"/><path d="M213.15,71.87c-.07-.2-.16-.41-.26-.63.07.22.15.43.26.63Z" fill="#fce284"/><path d="M212.47,66.7c-.03.07-.1.2-.06.63l.12-.33c-.02-.09-.03-.19-.05-.29Z" fill="#fce284"/><path d="M212.52,66.98h0c.06.33.09.55.11.65-.01-.08-.05-.28-.11-.65Z" fill="#fce284"/><path d="M212.45,66.62s0,.05.01.07c.01-.03.01-.05-.01-.07Z" fill="#fce284"/><path d="M212.02,63.43c.17.42.47,1.3.4.39-.17-.29-.13.23-.4-.39Z" fill="#fce284"/><path d="M212.59,66.21l-.12-.8s-.07.18-.16-.02l.28.82Z" fill="#fce284"/><polygon points="212.72 66.59 212.59 66.21 212.64 66.51 212.72 66.59" fill="#fce284"/><path d="M213.11,70.46c.14.33.22.7.3,1.12-.04-.46-.1-.94-.19-1.38-.07-.05-.22-.22-.12.26Z" fill="#fce284"/><path d="M212.84,68.77s.02.05.02.07c0-.05,0-.09-.02-.07Z" fill="#fce284"/><polygon points="214.14 75.76 214.17 75.68 214.13 75.67 214.14 75.76" fill="#fce284"/><path d="M213.24,70.12c-.03-.35-.12-.54-.21-.72.07.25.13.52.19.81.03.02.05.02.02-.08Z" fill="#fce284"/><path d="M213.44,73.01c.01-.19.02-.4.01-.62-.03.19-.08.56-.01.62Z" fill="#fce284"/><path d="M212.84,68.97l-.02-.05c-.02.12,0,.1.02.05Z" fill="#fce284"/><path d="M212.84,68.97c.06.17.13.3.2.43-.05-.2-.11-.39-.17-.55,0,.05-.02.09-.03.13Z" fill="#fce284"/><path d="M215.84,76.73c-.22-.02-.6-.88-.54-1.69-.31-.73-.87-.1-1.13.65.09,0,.18-.01.45.75.07-.3-.06-1.79.25-1.17.31,1.02.1.86.08,1.39.19-.48.63,1.25.99.94l-.31-.88c.06-.03.22.28.23.02Z" fill="#fce284"/><path d="M213.92,74.18l-.08-.32c.03.38,0,.66-.08,1.17.19.52.29.61.36.64l-.25-1.6.05.1Z" fill="#fce284"/><path d="M213.59,72.42c.25.21.48.96.62.44-.2-.94-.3-.63-.49-1.17.33,1.52-.19-.42-.11.71-.09-.29-.15-.56-.2-.81.02.28.04.55.04.81,0-.01,0-.03,0-.04h0s0,0,0,0c.01-.07.03-.1.02-.02,0,0,0,.02,0,.03.03,0,.06.03.09.05.03.45-.04.08-.09-.05-.01,0-.02-.01-.03-.01h0s.38,1.51.38,1.51c-.03-.33-.11-.73-.26-1.45Z" fill="#fce284"/><path d="M212.94,64.55c0,.05-.01.05-.03.06.04.09.06.13.03-.06Z" fill="#fce284"/><path d="M212.98,65.2c-.05-.11-.13-.18-.19-.55-.02-.32.07-.02.12-.04-.09-.21-.29-.73-.21-.03l.04.1c.08.63.04,1.46,0,1.36.11-.21.18-.4.24-.84Z" fill="#fce284"/><path d="M213.4,68.83l.36,1.25.03-.68-.09.05c-.12-.73-.2-.55-.29-.62Z" fill="#fce284"/><polygon points="214.05 75.93 213.78 75.8 214.25 76.47 214.05 75.93" fill="#fce284"/><polygon points="214.35 77.58 214.13 77.56 214.33 77.97 214.35 77.58" fill="#fce284"/><path d="M224.55,172.21l.08.39c-.02-.18-.05-.3-.08-.39Z" fill="#fce284"/><path d="M224.75,169.43l-.19-.08c.1.13.17.19.19.08Z" fill="#fce284"/><path d="M219.18,118.53c-.3.58-.78,1.24-.38,1.14l.39-.2c-.1-.38-.08-.68,0-.94Z" fill="#fce284"/><path d="M222.89,146.69c.04-.05.09-.11.13-.16-.15-.13-.29-.26-.42-.37.09.16.19.34.29.53Z" fill="#fce284"/><path d="M224.68,147.06l-.27.74c.09-.17.19-.4.27-.74Z" fill="#fce284"/><path d="M223.72,187.37l.35.48c.08-.7-.16-.41-.35-.48Z" fill="#fce284"/><path d="M216.92,94.6c-.06.49-.07.88-.04,1.21.12-.6.33-1.1.04-1.21Z" fill="#fce284"/><path d="M220.12,170.88c.06.24.15.34.24.34-.06-.24-.13-.38-.24-.34Z" fill="#fce284"/><path d="M217.05,97.18c.02-.09.03-.17.05-.26-.1-.34-.19-.68-.22-1.11-.08.44-.11.94.17,1.37Z" fill="#fce284"/><path d="M212.94,241.27l-.05.11s.04-.04.05-.11Z" fill="#fce284"/><path d="M207.58,256.35c.04-.15.1-.4.16-.64-.03.12-.08.3-.16.64Z" fill="#fce284"/><path d="M215.28,84.29c-.07-.35-.04-.05,0,0h0Z" fill="#fce284"/><path d="M216.07,82.38c.04.07.09.12.15.12-.07-.02-.12-.06-.15-.12Z" fill="#fce284"/><path d="M219.57,100.42s0,.02,0,.03c.05-.11.04-.09,0-.03Z" fill="#fce284"/><path d="M215.33,83.73c-.01.14-.02.3-.02.47.01-.08.02-.22.02-.47Z" fill="#fce284"/><path d="M215.21,83.83c0-.12-.01-.22-.02-.31-.05-.04-.07,0,.02.31Z" fill="#fce284"/><path d="M215.36,84.77c-.03-.2-.05-.39-.05-.58,0,.07-.02.1-.03.09.02.1.04.25.08.49Z" fill="#fce284"/><path d="M218.85,212.48s-.02.05-.04.07c.07.38.08.22.04-.07Z" fill="#fce284"/><path d="M224.04,127.52s-.02-.02-.02-.04c0,.02,0,.04-.01.05h.03Z" fill="#fce284"/><path d="M224.44,128.79c-.55-.52-.51-.83-.43-1.26l-1.16.5,1.6.76Z" fill="#fce284"/><path d="M224.21,178.85l.45-.88c.52,1.14.23,1.92.83,1.1-1.26-.22.16-3.54-1.15-3.75l.31-.58c-.02.17.05.2.03.37.71-1.12-.89-.92-.61-2.41.13-.52.35-.87.48-.5l-.25-1.18c.05-.34.27-.24.23.09v-1.78s.04.02.04.02c-.19-.26-.5-.85-.62-1.14.21-.44.13.23.3.12l-.29-1c.36-.39.67.44.59,1.12,1.37-.86-.3-.83.56-2.78l.13.94c.79-.57.54-1.31,1.06-2.34-.26.24-1.28,2.06-1.58.98.11-.3.18-.69-.07-1.28.48.01.38-.56.38-1.26l.63.07c-.15-.77-.48-.72-.75-1.17.09-.85.6-1.01,1.02-1.2.12-1.36-.81.92-.9-.69.26-1.12,0-1.92-.36-3.28.23-.79.39.14.58-.14l-.5-.71c.01-.17.17-.11.25-.08-.19-.59-.64-.06-.8-.98-.7-.25,1.05-1.9.26-3.05.19-.28.39.14.64.05-.5-1.58-.38-1.35-1.1-2.64l.4-1.1c-.47.81-1.05-.22-1.53-1.11-.23.29-.43.53-.52.7l-.36-1.43c.1-.17.32-.03.59.2-.05-.1-.11-.19-.16-.26.23-.52.6-.26.96.11l-.39.52c.39.35.83.68,1.2.6-.08-.09-.14-.27-.18-.47.11.09.2.15.26.11.07-.05-.08-.2-.24-.43l.71-.34-.28-.08.41-1.9c-.75-1.34-1.77-2.49-2.15-4.62.54.52.85.09,1.46.1-.62.6.34,1.65.22,2.77.06-.58.35-.46.46-.32-.21-.66-.41-1.31-.64-1.97.5.03.36-.43.54-.96-.97.42-.72-1.46-1.05-2.25.33-.06.67.12.63,1.11.69-1.11-1.21-1.36-.63-2.45.02.24-.03.37.14.46-.32-.55-.14-1.93.16-1.62l.02.24c.02-.8-.03-2.01-.19-3.05-.18-1.04-.47-1.9-.89-1.99.1-.02,1,.15,1.17.24l-2.91-2.68c.71.21,2.3-.86,2.78.44.07-.39.15-.86-.15-1.65-.08.27-.96.71-1.04.36.71-1.02.37-.7.94-1.94-.12.4-1.23.04-1.23-.57.17.08,1.06-.13,1.18.09l-1.15-1.45c.21.37.9,0,1.16-.36-.19.17-.11-1.32-.25-1.72l-.18.66c0-1.73-1.61-1.58-1.7-3.28.23.19,1.35.4,1.39-.48-.56-.35-2.66-1.54-3.16-2.99l.27-.32-.45-1.12c.84.64,2.63,2.5,3.38,3.55.17-.66.33-.21.21-1.17.24-.37.47.49.52.77l-.05-2.26c-.58.16-.8-1.66-1.28-1.52l.89,2.37c-.59.15-1.83-1.25-1.91-2.84.19-.43,1.08.19,1.27.14-.23-.19-.56-1.46-.44-1.63l.39.64c.11-.91-.94-1.36-.52-2.48,0-.37.6-1.17.26-1.2-.57.67-2.58,1.01-3.1.67.03-.13.43-1.98.69-2.44.42-.66,1.3.76,1.67.2-.15,0-.38-.31-.47-.44.08-.4.49.1.31-.72-.58-.07-.19-1.7-.53-.34-.27-.79,0-.88-.16-1.83-.32.35-1.32-.7-1.57-1.5.14.03.3-.18.37-.28-.17-1.67-.03-2.6-.27-4.15.1-.16.14-.93.41-.64-.13-.21-.33-.39-.42-.87.29-.99.24,1.06.65.27-.31-.02-.61-1.18-.89-1.83-.41.28.16,1.58.45,2.24-.63.09-1.47-.99-1.97-2.57-.33-1.26.31-.62.2-.83-.24-2.43-1.32-1.89-1.2-3.96.24-.85.71-.16.94-.37.31,1.02.04,1.64.17,2.35l.03-.9c.18.31.4.99.34,1.39.24-.72-.62-4.08-.65-5.99-.17-.31-.39-.86-.48-.57l.15.58c-.19.59-.56-1.04-.57-.27-.31-.76-.75-1.58-.8-2.72l.33-.28c-.1.04-.09.76.08,1.05-.24-.43.19-1.79-.38-2.21l-.11.82c-.32-.76-.85-1.66-.9-2.66-.27.51.08.22-.21.99.41-.7.37,2.52.76,1.44-.37.81,0,1.28-.28,2.29.12-.05.19-.38.25.46.04.03.1.11.14.16,0,.03,0,.04,0,.06v-.05s.04.03.01-.02c.03-.21.07-.38.13-.46.35.36.54,1.67.76,2.09.01.5-.18-.18-.28.11l.33.62c-.28.12-.3,1.39-.63.26l.13,1.04c-.08.64-.03,1.49.17,1.99,0,.5.52,1.18.22.79l.4,1.6-.08.03c.15,1.62.98,3.24.6,5.16.16.53.34,1.07.33,2l-.28.22c.18.68-.09,2.13.27,2.39-.76.86.18,3.4.14,4.65h.43c.05.85.24,1.64.51,2.67l.38-.11c.4.87-.05,2.36.12,3.78-.16-.08-.15-.45-.09-.72-.72,1.79.96,3.55.42,5.16.18.37.15.66.06.94,0-.04-.01-.07-.03-.09,0,.04,0,.1,0,.16-.06.18-.13.36-.18.56.09-.17.16-.33.19-.47.03.3.11.75.25,1.18l-.43.23s.01.06.02.1c-.13.45.23.33.55.07.09.22.19.42.31.57-.69.41.33,1.15-.4,1.69.41.27.41,2.21,1.23,2.39-.1.02-.15.16-.17-.08-.06.5-.13,1,.13,1.43l-.57.25.84,1.03c-.32.68-.51.96-.99.34.78,1.54.33,1.26,1.09,2.57l-.38-.04c.04.48.6,1.22.3,1.52-.69,1.11.08,5.32-.51,8.1,1.13-.57-.47,1.29.42,1.38-.27.17-.42.56-.66.12.28,1.4-.41,2.12.35,3.07-.27.17-.4-.29-.57-.15.06.11.24.44.08.59-.16.15-.23-.2-.35-.42.06,1.43.91,1.57,1.7,1.66-.37.73-.31,1.1.22,1.62-.26.26-.52.68-.63-.21-.03.5-.34,3.07.3,3.12-.16.16-.05.7.02.84-.05,1.13-.11,1.23-.06,2.33l.11-.31c.77.44.16.92.24,1.82l-.08-.03c-.58,2.04.25.89-.4,2.9l.48-.1c1.02.21-.62,1.78-.25,2.96l.28-.42c.34.65-1.46,1.75-1.6,2.39-.09.14-.14-.22-.19-.42-.66,1.66.62.24.72,1.49-.34.22-.85-.33-.93.51-.28.41,1.01,2.48.33,3.61.26-.24.53-.48.7.11.07.9-1.07,2.36-.31,3.21-.08.11-.15.15-.21.15.17.69.23,2.23.64,2.67-1.63.53.55,4.29-.94,4.18l-.07,2.1-.14-.07c-.19,1.33.12,1.83.43,2.33-.12.3-.24.06-.31.03-.44,1.93-.36,2.13.18,3.83l-.47.13c.22.47-.96,2.75-.61,4.72-.05-.02-.13-.07-.18-.23.34,2.22-1.71,5.01-.23,5.98l.22,1.47c.33-1.82.63.36.98-.37,0,.74-.68,1.81-.66.91l.09-.13c-.76-.43-.53,2.25-1.08,2.13-.43,3.61-1.27,7.07-1.79,10.43l.6-.3-.2,1.17c-.17.29-.48.35-.34-.49-.37.39.06,1.45.16,1.49-.45,1.61-.53-.74-.61-.24l-.06.69.08-.14c.13.59.37.68.17,1.68-.21.62-.37.27-.43.52-.04,0-.07.07-.08.38l-.28,1.47.49-.52c.09.69-.25,1.39.31.78-.43.44-.71,1.81-.93,3.14-.24,1.33-.42,2.61-.57,2.9.09.97-.08,1.87-.31,2.98.12-.26.53-.35.3.6-.69-.51-.69,1.69-1.36,2.36.48-.62-.44,2.76.24,1.77-.22.79-.27,0-.55.57-.12,1.97-1.02,4.17-1.4,6.55.06.05.27-.31.26.22l-.63,1.16c-.06.47.3.52-.12,1.32.08-.11.21-.26.16.05-.66,2.27-1.16,4.63-1.7,6.99-.56,2.36-1.19,4.71-1.88,7.01.2-.62.1-.2-.02.29.09-.31.05.02.09-.03l-.58,1.93c-.05.37-.55,2.08-.59,2.29l.17-.61c-.22.82.4-1.12.44-.97.23-.92.93-2.33,1.28-3.85.14-.32-.05.29.04.13.07-.39.2-.85.5-1.68v.1c.7-2.38,1.14-3.36,2.02-6.01l-.19.16c.19-.57.27-.68.39-.94-.02-.72-.5,1.61-.54.95.51-.69,1.18-4.06,1.69-4.48.26-.89-.27.21-.02-.68l.18-.21-.08-.26c.19-.58.41-.84.52-.83-.05.14-.09.41-.13.56.36-.72.57-2.14.69-2.39l-.32.84c.54-2.46,1.55-5.39,1.81-7.82l-.16.15c.21-1.86.47-1.42.84-3.43v.08c-.02-.42.05-.97.18-1.51.04.53.5-.89.53-.19.18-2.02.02-1.02-.21-2.42l.29-.26c-.11-.48-.21-.54-.07-1.55.03.86.49-.57.56.4.99-1.99.11-3.21,1.09-4.03-.5-1.09-.74,1.75-.78,1.18-.3.41-.35-.89-.16-1.54.14-.67,1.11-.98,1.43-2.67-.04.17.02.19-.02.36.31-.6,0-1.28.44-2.01-.37-.51.21-1.01-.35-1.23l-.14,1.58c.01-.91-.53-1.84.04-3.24.1.13.18.59.22.9.25-.4.03-.84.28-1.25.57.22-.2,1.91.07,2.93.33-.42-.1-1.85.44-1.28-.68-.81.41-1.65-.01-2.9l.35.13c-.02-.19-.13-.59-.06-.93l.36.68c-.24-.99.69-1.74.61-2.67-.3,1.87-.51.35-.91,1.1-.13-2.38,1.18-1.18,1.43-3.8,0,.36-.44,1.28-.53.71.16-.48.41-1.11.66-1.39.2-1.73-.44.21-.56-.55.56-.52-.06-.87-.1-1.64l.4.05c.56-1.92-.76-.63-.21-2.35l.46.82-.02-.94.44.25c-.21-1.04-.08-1.34.19-2.31-.32.19-.73-.22-.64-1.09.33-.56.35.38.46-.86.23.31.51.65.06,1.14.13.07.22.3.35.38.37-.6.29-1.6.34-2.04-.04.17-.09.37-.16.47l-.35-1.85c.19-.26.3-.03.39.21,0-.37-.17-.64-.15-1.18.33.18.7.18.77.95l-.19-1.75c.16-.1.52-.83.62-.6.32-.93-.42-2.39,0-3.62-.06-.07-.11-.21-.14-.48.22-1.17.76-2.18.38-3.62l.73-.74c-.05-1.11-.93,1.01-1.01-.84-.1-1.31.61-.44.83-.88-.28-.67-.87-1.84-.22-2.98.09.4-.03.7-.02,1.07ZM224.71,165.29c.09.27.38.8.09.98-.53-.32-.26-.54-.09-.98ZM223.78,144.69c.16.19.09.5-.09.84-.04-.25-.03-.53.09-.84ZM216.08,88.11s.01.02.02.02c-.04.6-.02.38-.02-.02ZM216.05,86.89c-.06-.11-.1-.1-.14-.04.09.07.14.34.16.65.07-.1.11-.26-.02-.61ZM215.9,215.85l.13-.22c.01.54-.05.38-.13.22Z" fill="#fce284"/><path d="M224.47,147.01c-.08.08-.17.1-.26.11.08.1.18.1.26-.11Z" fill="#fce284"/><path d="M223.65,187.28v.04s.04.04.07.05l-.07-.09Z" fill="#fce284"/><path d="M221.77,105.02c-.02.25-.08.4-.14.5.1,0,.17-.12.14-.5Z" fill="#fce284"/><path d="M214.59,80.66l.19.75c-.07-.37-.03-.51-.01-.7-.06.03-.14.19-.18-.04Z" fill="#fce284"/><path d="M215.03,73.73c-.05-.1-.05-.23-.11-.34l-.1.05c.1.47.26.78.21.28Z" fill="#fce284"/><path d="M215.41,79.78c.22-.11.06-.57-.08-1.09l.02.09c-.35-.1-.15.45.06,1Z" fill="#fce284"/><path d="M215.3,78.56c-.04-.16-.07-.33-.09-.49-.14-.04,0,.21.09.49Z" fill="#fce284"/><path d="M215.65,85.41c.03-.27-.35-.1-.27-.26-.37-.23.64,1.62.27.26Z" fill="#fce284"/><polygon points="216.1 79.2 215.85 79.45 216.14 79.7 216.1 79.2" fill="#fce284"/><path d="M216.66,83.46l-.07-.87s-.1-.08-.15-.21c.09.53.13,1.12.21,1.08Z" fill="#fce284"/><path d="M216.45,82.38c-.05-.27-.1-.53-.18-.68.03.15.1.46.18.68Z" fill="#fce284"/><polygon points="216.41 80.35 216.4 80.61 216.49 81.22 216.41 80.35" fill="#fce284"/><path d="M218.08,92.68l.24.92c.14.08.18-.19.08-.53-.12-.21-.22-.55-.32-.39Z" fill="#fce284"/><path d="M218.61,89.69c-.03.26-.1.29-.19.45l.44-.04-.24-.41Z" fill="#fce284"/><path d="M219.15,92.41c.14.07.58,1.31.36.12-.14-.08-.39-1-.36-.12Z" fill="#fce284"/><polygon points="220.52 106.65 220.49 106.41 219.64 106.54 220.52 106.65" fill="#fce284"/><path d="M224,119c.11-1.14-.6-.22-.42-1.26-.24-.25-.15.85-.36.59.3.66.2,1.03.78.66Z" fill="#fce284"/><path d="M223.21,118.33c-.05-.11-.1-.22-.17-.33.08.19.13.28.17.33Z" fill="#fce284"/><polygon points="206.89 258.9 206.71 259.6 206.83 259.15 206.89 258.9" fill="#fce284"/><path d="M206.56,260.25l-.05.16-.1.42c.04-.15.11-.41.15-.58Z" fill="#fce284"/><path d="M226.09,163.32l-.15-.06c-.17.11-.19.28-.23.62l.38-.56Z" fill="#fce284"/><polygon points="225.11 173.16 225.13 172.99 224.54 173.27 225.11 173.16" fill="#fce284"/><path d="M225.17,181.47c.05-.34-.03-.74.02-1.08.03.74-.72,1.11-.02,1.08Z" fill="#fce284"/></svg>